<?xml version="1.0" encoding="UTF-8"?>
<!DOCTYPE svg PUBLIC "-//W3C//DTD SVG 1.1//EN" "http://www.w3.org/Graphics/SVG/1.1/DTD/svg11.dtd">
<svg xmlns="http://www.w3.org/2000/svg" version="1.1" width="512px" height="512px" style="shape-rendering:geometricPrecision; text-rendering:geometricPrecision; image-rendering:optimizeQuality; fill-rule:evenodd; clip-rule:evenodd" xmlns:xlink="http://www.w3.org/1999/xlink">
<g><path style="opacity:0.991" fill="#484f69" d="M 112.5,6.5 C 206.501,6.33334 300.501,6.5 394.5,7C 395.931,7.46524 397.097,8.29857 398,9.5C 399.65,37.7469 399.983,66.0802 399,94.5C 397.194,99.4455 394.861,104.112 392,108.5C 386.506,115.487 381.506,122.82 377,130.5C 375.232,136.038 374.066,141.704 373.5,147.5C 376.667,167.167 379.833,186.833 383,206.5C 383.061,235.015 382.561,263.515 381.5,292C 407.02,344.913 420.187,400.747 421,459.5C 417.231,464.143 412.731,467.976 407.5,471C 375.303,487.968 340.97,497.635 304.5,500C 291.187,501.307 277.854,501.64 264.5,501C 262.274,499.773 260.774,497.939 260,495.5C 257.774,482.478 255.441,469.478 253,456.5C 250.975,470.653 248.309,484.653 245,498.5C 200.899,503.184 158.065,497.017 116.5,480C 105.759,475.552 95.9252,469.719 87,462.5C 85.5242,403.891 97.8575,348.224 124,295.5C 123.651,264.504 123.651,233.504 124,202.5C 127.322,184.069 130.155,165.569 132.5,147C 132.401,140.171 130.901,133.671 128,127.5C 124.054,121.221 119.721,115.221 115,109.5C 111.806,104.446 109.139,99.1122 107,93.5C 106.333,66.5 106.333,39.5 107,12.5C 108.021,9.64986 109.854,7.64986 112.5,6.5 Z"/></g>
<g><path style="opacity:1" fill="#9eaacd" d="M 175.5,24.5 C 198.169,24.3334 220.836,24.5 243.5,25C 244.416,25.3742 245.25,25.8742 246,26.5C 246.667,34.1667 246.667,41.8333 246,49.5C 245.097,50.7014 243.931,51.5348 242.5,52C 225.677,54.3855 209.677,59.3855 194.5,67C 192.833,67.6667 191.167,67.6667 189.5,67C 178.366,56.9029 172.533,44.4029 172,29.5C 172.997,27.6769 174.164,26.0103 175.5,24.5 Z"/></g>
<g><path style="opacity:1" fill="#9eaacc" d="M 261.5,24.5 C 284.169,24.3334 306.836,24.5 329.5,25C 331.286,25.7845 332.786,26.9512 334,28.5C 333.776,43.7884 327.942,56.6217 316.5,67C 315.667,67.1667 314.833,67.3333 314,67.5C 297.063,60.2238 279.563,54.7238 261.5,51C 260.299,50.0975 259.465,48.9308 259,47.5C 258.333,41.1667 258.333,34.8333 259,28.5C 259.662,27.0161 260.496,25.6828 261.5,24.5 Z"/></g>
<g><path style="opacity:1" fill="#9da9cc" d="M 236.5,63.5 C 238.857,63.3367 241.19,63.5034 243.5,64C 245.333,64.5 246.5,65.6667 247,67.5C 247.667,81.5 247.667,95.5 247,109.5C 246.167,110.333 245.333,111.167 244.5,112C 230.5,112.667 216.5,112.667 202.5,112C 188.475,96.2688 190.808,83.6021 209.5,74C 218.205,69.3827 227.205,65.8827 236.5,63.5 Z"/></g>
<g><path style="opacity:1" fill="#9eaacd" d="M 262.5,63.5 C 280.507,65.089 296.34,71.7557 310,83.5C 315.143,94.4558 312.976,103.956 303.5,112C 289.5,112.667 275.5,112.667 261.5,112C 261,111.5 260.5,111 260,110.5C 259.333,95.8333 259.333,81.1667 260,66.5C 261.045,65.6266 261.878,64.6266 262.5,63.5 Z"/></g>
<g><path style="opacity:1" fill="#9da9cc" d="M 152.5,91.5 C 153.239,91.369 153.906,91.5357 154.5,92C 162.378,100.876 169.878,110.043 177,119.5C 178.937,123.646 180.271,127.979 181,132.5C 181.5,142.161 181.666,151.828 181.5,161.5C 179.801,161.66 178.134,161.494 176.5,161C 168.294,154.462 161.128,146.962 155,138.5C 154.197,135.756 153.197,133.089 152,130.5C 151.187,117.425 151.354,104.425 152.5,91.5 Z"/></g>
<g><path style="opacity:1" fill="#9da9cb" d="M 351.5,91.5 C 352.822,91.33 353.989,91.6634 355,92.5C 355.667,103.833 355.667,115.167 355,126.5C 353.706,133.42 351.04,139.753 347,145.5C 340.648,151.353 334.148,157.02 327.5,162.5C 326.914,162.291 326.414,161.957 326,161.5C 325.333,150.833 325.333,140.167 326,129.5C 327.245,123.678 329.578,118.345 333,113.5C 339.777,106.567 345.943,99.2339 351.5,91.5 Z"/></g>
<g><path style="opacity:1" fill="#9da9cc" d="M 211.5,122.5 C 222.172,122.333 232.839,122.5 243.5,123C 244.416,123.374 245.25,123.874 246,124.5C 247.144,134.906 247.644,145.406 247.5,156C 247.333,165.833 247.167,175.667 247,185.5C 246.626,186.416 246.126,187.25 245.5,188C 234.264,189.622 222.931,189.955 211.5,189C 207.835,187.332 205.668,184.499 205,180.5C 204.333,163.833 204.333,147.167 205,130.5C 206.479,127.172 208.645,124.506 211.5,122.5 Z"/></g>
<g><path style="opacity:1" fill="#9eaacd" d="M 262.5,122.5 C 272.839,122.334 283.172,122.5 293.5,123C 296.196,123.69 298.363,125.19 300,127.5C 301.639,145.409 301.973,163.409 301,181.5C 300.117,184.102 298.617,186.269 296.5,188C 285.239,189.6 273.906,189.933 262.5,189C 261.667,188.167 260.833,187.333 260,186.5C 259.333,166.167 259.333,145.833 260,125.5C 261.045,124.627 261.878,123.627 262.5,122.5 Z"/></g>
<g><path style="opacity:1" fill="#9da9cb" d="M 153.5,153.5 C 164.4,159.899 173.234,168.566 180,179.5C 181.542,188.104 181.876,196.77 181,205.5C 179.534,207.325 177.701,207.825 175.5,207C 166.499,199.341 158.999,190.508 153,180.5C 151.463,172.23 151.13,163.897 152,155.5C 152.717,154.956 153.217,154.289 153.5,153.5 Z"/></g>
<g><path style="opacity:1" fill="#9da9cb" d="M 350.5,153.5 C 352.17,153.751 353.67,154.418 355,155.5C 357.258,167.395 355.258,178.395 349,188.5C 342.801,194.364 336.968,200.531 331.5,207C 329.833,207.667 328.167,207.667 326.5,207C 325.066,197.502 325.233,188.002 327,178.5C 328.08,176.004 329.414,173.67 331,171.5C 337.696,165.634 344.196,159.634 350.5,153.5 Z"/></g>
<g><path style="opacity:1" fill="#9da9cc" d="M 147.5,189.5 C 149.262,189.357 150.929,189.691 152.5,190.5C 163.096,200.392 172.263,211.392 180,223.5C 191.914,243.729 196.081,265.229 192.5,288C 190.231,288.758 188.064,288.591 186,287.5C 176.041,275.205 165.707,263.205 155,251.5C 147.33,241.819 143.83,230.819 144.5,218.5C 144.668,209.814 145.168,201.148 146,192.5C 146.513,191.473 147.013,190.473 147.5,189.5 Z"/></g>
<g><path style="opacity:1" fill="#9da9cc" d="M 354.5,189.5 C 356.722,189.178 358.556,189.845 360,191.5C 361.92,203.106 362.586,214.773 362,226.5C 360.859,235.444 357.526,243.444 352,250.5C 341.049,262.907 330.215,275.407 319.5,288C 317.5,288.667 315.5,288.667 313.5,288C 310.174,260.636 316.674,235.803 333,213.5C 339.94,205.28 347.106,197.28 354.5,189.5 Z"/></g>
<g><path style="opacity:1" fill="#9da9cc" d="M 213.5,197.5 C 224.172,197.333 234.839,197.5 245.5,198C 246.126,198.75 246.626,199.584 247,200.5C 247.667,246.5 247.667,292.5 247,338.5C 244.199,341.796 241.199,342.129 238,339.5C 213.336,298.202 203.003,253.536 207,205.5C 208.305,202.039 210.471,199.372 213.5,197.5 Z"/></g>
<g><path style="opacity:1" fill="#9eaacd" d="M 261.5,197.5 C 272.603,197.046 283.603,197.546 294.5,199C 296.378,200.543 297.878,202.376 299,204.5C 303.346,252.444 293.346,297.111 269,338.5C 266.374,342.072 263.374,342.405 260,339.5C 259.333,292.833 259.333,246.167 260,199.5C 260.717,198.956 261.217,198.289 261.5,197.5 Z"/></g>
<g><path style="opacity:1" fill="#f9044f" d="M 144.5,249.5 C 146.39,249.297 147.89,249.963 149,251.5C 153.333,258.167 157.667,264.833 162,271.5C 162.667,274.833 162.667,278.167 162,281.5C 144.546,318.737 129.046,356.737 115.5,395.5C 113.856,395.714 112.356,395.38 111,394.5C 110.049,381.826 111.715,369.492 116,357.5C 124.863,334.578 133.53,311.578 142,288.5C 143.107,275.48 143.94,262.48 144.5,249.5 Z"/></g>
<g><path style="opacity:1" fill="#fa044f" d="M 361.5,249.5 C 362.822,249.33 363.989,249.663 365,250.5C 365.333,262.167 365.667,273.833 366,285.5C 374.137,307.578 382.47,329.578 391,351.5C 396.955,365.269 399.288,379.602 398,394.5C 395.546,396.013 393.879,395.346 393,392.5C 379.23,354.522 363.896,317.189 347,280.5C 346.333,277.5 346.333,274.5 347,271.5C 351.663,264.013 356.496,256.68 361.5,249.5 Z"/></g>
<g><path style="opacity:1" fill="#9eaacc" d="M 160.5,324.5 C 164.95,324.142 168.45,325.808 171,329.5C 176.463,354.22 182.129,378.886 188,403.5C 192.92,430.617 194.753,457.951 193.5,485.5C 168.718,483.85 145.551,476.85 124,464.5C 123.303,443.077 125.969,422.077 132,401.5C 138.47,378.09 146.137,355.09 155,332.5C 156.273,329.403 158.107,326.736 160.5,324.5 Z"/></g>
<g><path style="opacity:1" fill="#9eaacd" d="M 340.5,324.5 C 345.919,323.959 349.419,326.293 351,331.5C 365.605,366.979 375.938,403.645 382,441.5C 382.667,449.167 382.667,456.833 382,464.5C 360.706,476.368 337.873,483.368 313.5,485.5C 311.628,460.696 312.795,436.03 317,411.5C 323.108,384.514 329.108,357.514 335,330.5C 336.36,327.977 338.193,325.977 340.5,324.5 Z"/></g>
<g><path style="opacity:1" fill="#9eaacc" d="M 196.5,339.5 C 198.199,339.34 199.866,339.506 201.5,340C 211.631,355.097 222.131,369.93 233,384.5C 235.219,388.271 236.885,392.271 238,396.5C 236.523,426.177 234.523,455.844 232,485.5C 228.421,491.753 224.421,492.086 220,486.5C 215,470.833 210,455.167 205,439.5C 201.403,406.11 198.57,372.777 196.5,339.5 Z"/></g>
<g><path style="opacity:1" fill="#9eaacd" d="M 305.5,339.5 C 309.24,338.741 310.907,340.241 310.5,344C 307.574,376.191 304.407,408.357 301,440.5C 296.131,455.439 291.465,470.439 287,485.5C 282.667,492.167 278.333,492.167 274,485.5C 271.525,455.193 269.859,424.86 269,394.5C 270.393,390.714 272.059,387.048 274,383.5C 284.719,368.954 295.219,354.288 305.5,339.5 Z"/></g>
</svg>
