<?xml version="1.0" encoding="UTF-8"?>
<!DOCTYPE svg PUBLIC "-//W3C//DTD SVG 1.1//EN" "http://www.w3.org/Graphics/SVG/1.1/DTD/svg11.dtd">
<svg xmlns="http://www.w3.org/2000/svg" version="1.1" width="512px" height="512px" style="shape-rendering:geometricPrecision; text-rendering:geometricPrecision; image-rendering:optimizeQuality; fill-rule:evenodd; clip-rule:evenodd" xmlns:xlink="http://www.w3.org/1999/xlink">
<g><path style="opacity:0.992" fill="#494f69" d="M 121.5,3.5 C 150.523,7.76529 179.523,12.2653 208.5,17C 236.789,21.1763 265.123,21.5097 293.5,18C 324.818,12.8906 356.151,8.22396 387.5,4C 445.497,23.7866 470.664,64.2866 463,125.5C 462.374,132.92 461.208,140.253 459.5,147.5C 464.449,153.621 469.615,159.621 475,165.5C 490.231,187.418 497.231,211.751 496,238.5C 478.079,270.673 460.413,303.007 443,335.5C 437.862,340.492 432.862,340.158 428,334.5C 414.938,311.919 408.605,287.585 409,261.5C 404.396,255.278 399.563,249.278 394.5,243.5C 388.782,250.394 383.616,257.728 379,265.5C 376.808,271.128 375.641,276.961 375.5,283C 377.845,301.569 380.678,320.069 384,338.5C 384.621,368.842 384.287,399.175 383,429.5C 356.945,466.207 322.111,490.373 278.5,502C 247.143,508.039 217.476,503.372 189.5,488C 164.558,473.395 143.724,454.228 127,430.5C 125.558,401.182 124.891,371.849 125,342.5C 128.221,322.673 131.388,302.84 134.5,283C 133.963,275.017 131.796,267.517 128,260.5C 123.279,254.779 118.946,248.779 115,242.5C 110.333,248.5 105.667,254.5 101,260.5C 101.041,287.338 94.3747,312.338 81,335.5C 75.8619,340.492 70.8619,340.158 66,334.5C 48.9206,302.673 31.5873,271.006 14,239.5C 11.7744,203.299 23.941,172.966 50.5,148.5C 43.0399,118.822 44.2066,89.4886 54,60.5C 63.343,41.49 77.1763,26.6567 95.5,16C 104.136,11.5134 112.803,7.34672 121.5,3.5 Z"/></g>
<g><path style="opacity:1" fill="#9eaacd" d="M 118.5,21.5 C 136.083,20.7165 152.75,24.2165 168.5,32C 155.326,35.0053 144.159,41.5053 135,51.5C 123.032,64.7635 114.699,80.0968 110,97.5C 103.071,110.104 94.2376,121.271 83.5,131C 77.2408,136.048 71.0741,141.214 65,146.5C 61.59,132.068 60.09,117.401 60.5,102.5C 58.3827,77.3422 66.0493,55.8422 83.5,38C 93.9874,29.7536 105.654,24.2536 118.5,21.5 Z"/></g>
<g><path style="opacity:1" fill="#9eaacd" d="M 375.5,21.5 C 399.427,20.7119 419.261,29.3785 435,47.5C 447.867,68.6805 452.534,91.6805 449,116.5C 448.187,126.565 446.854,136.565 445,146.5C 430.037,135.205 416.704,122.205 405,107.5C 399.971,95.4138 394.637,83.4138 389,71.5C 380.549,56.7152 369.049,44.8818 354.5,36C 350.244,34.3694 345.91,33.0361 341.5,32C 352.373,26.6214 363.707,23.1214 375.5,21.5 Z"/></g>
<g><path style="opacity:1" fill="#9eaacd" d="M 179.5,33.5 C 184.844,33.334 190.177,33.5006 195.5,34C 213.778,39.3901 230.611,47.5568 246,58.5C 246.667,59.8333 247.333,61.1667 248,62.5C 248.667,81.1667 248.667,99.8333 248,118.5C 246.664,124.501 243.164,128.668 237.5,131C 215.72,137.593 194.054,144.593 172.5,152C 164.654,153.052 157.654,151.052 151.5,146C 145.461,138.294 138.461,131.627 130.5,126C 124.49,122.997 118.157,120.997 111.5,120C 109.876,118.883 108.876,117.383 108.5,115.5C 117.424,102.985 124.257,89.3188 129,74.5C 141.352,55.2499 158.185,41.5832 179.5,33.5 Z"/></g>
<g><path style="opacity:1" fill="#9eaacd" d="M 313.5,33.5 C 322.131,32.725 330.464,33.8917 338.5,37C 355.748,45.2457 369.581,57.4124 380,73.5C 384.308,87.7833 390.974,100.783 400,112.5C 400.839,115.14 400.339,117.473 398.5,119.5C 381.849,122.487 368.849,130.987 359.5,145C 352.736,150.275 345.069,152.608 336.5,152C 314.957,144.597 293.29,137.597 271.5,131C 266.123,127.957 262.623,123.457 261,117.5C 260.333,99.5 260.333,81.5 261,63.5C 264.223,57.2767 269.057,52.7767 275.5,50C 287.908,43.5975 300.574,38.0975 313.5,33.5 Z"/></g>
<g><path style="opacity:1" fill="#9eaacd" d="M 96.5,130.5 C 101.592,130.093 105.425,132.093 108,136.5C 110.274,178.4 99.6075,216.733 76,251.5C 71.1667,257.667 65.6667,263.167 59.5,268C 53.6174,269.922 49.4507,268.089 47,262.5C 45.8596,248.621 44.3596,234.788 42.5,221C 42.5591,216.778 43.0591,212.611 44,208.5C 51.2091,189.704 58.7091,171.037 66.5,152.5C 76.8228,145.497 86.8228,138.163 96.5,130.5 Z"/></g>
<g><path style="opacity:1" fill="#9eaacd" d="M 407.5,130.5 C 409.527,130.338 411.527,130.505 413.5,131C 423.667,138.5 433.833,146 444,153.5C 451.617,172.399 458.95,191.399 466,210.5C 466.414,228.285 465.08,245.952 462,263.5C 458.726,268.738 454.226,269.904 448.5,267C 437.972,257.787 429.472,246.954 423,234.5C 413.084,214.418 405.75,193.418 401,171.5C 400.333,160.5 400.333,149.5 401,138.5C 402.305,135.039 404.471,132.372 407.5,130.5 Z"/></g>
<g><path style="opacity:1" fill="#fd8464" d="M 240.5,141.5 C 243.505,141.253 246.005,142.253 248,144.5C 248.965,158.927 248.632,173.26 247,187.5C 239.032,190.201 230.865,192.368 222.5,194C 212.929,197.079 203.596,200.745 194.5,205C 193.5,205.667 192.5,205.667 191.5,205C 179.127,194.114 173.627,180.614 175,164.5C 175.903,163.299 177.069,162.465 178.5,162C 199.495,155.835 220.161,149.001 240.5,141.5 Z"/></g>
<g><path style="opacity:1" fill="#fd8464" d="M 264.5,141.5 C 286.413,148.638 308.413,155.471 330.5,162C 334.264,163.596 336.264,166.429 336.5,170.5C 334.201,184.268 327.868,195.768 317.5,205C 309.137,202.432 300.803,199.432 292.5,196C 282.205,193.429 272.038,190.595 262,187.5C 260.369,173.594 260.036,159.594 261,145.5C 261.69,143.65 262.856,142.316 264.5,141.5 Z"/></g>
<g><path style="opacity:1" fill="#9da8cb" d="M 47.5,174.5 C 48.9953,174.415 49.9953,175.081 50.5,176.5C 43.9199,187.743 39.4199,199.743 37,212.5C 36.6667,227.167 36.3333,241.833 36,256.5C 35.586,256.957 35.086,257.291 34.5,257.5C 24.9618,246.194 21.7952,233.194 25,218.5C 27.0079,200.814 34.5079,186.147 47.5,174.5 Z"/></g>
<g><path style="opacity:1" fill="#9aa6c9" d="M 459.5,174.5 C 466.065,177.896 471.232,182.896 475,189.5C 483.204,205.188 486.538,221.855 485,239.5C 482.657,246.2 479.323,252.2 475,257.5C 474.228,257.355 473.561,257.022 473,256.5C 472.667,240.5 472.333,224.5 472,208.5C 468.631,196.783 464.465,185.45 459.5,174.5 Z"/></g>
<g><path style="opacity:1" fill="#9aa6c9" d="M 398.5,194.5 C 399.5,194.5 400.5,194.5 401.5,194.5C 402.827,200.314 404.66,205.981 407,211.5C 411.94,222.829 416.773,234.162 421.5,245.5C 420.448,245.649 419.448,245.483 418.5,245C 404.731,230.964 398.064,214.13 398.5,194.5 Z"/></g>
<g><path style="opacity:1" fill="#99a5c7" d="M 108.5,194.5 C 109.496,194.414 110.329,194.748 111,195.5C 111.961,202.336 111.295,209.003 109,215.5C 105.237,227.38 98.7368,237.38 89.5,245.5C 88.4173,244.635 88.2506,243.635 89,242.5C 96.345,226.815 102.845,210.815 108.5,194.5 Z"/></g>
<g><path style="opacity:1" fill="#fd8464" d="M 237.5,199.5 C 241.603,198.769 245.103,199.769 248,202.5C 248.667,217.167 248.667,231.833 248,246.5C 247.5,247 247,247.5 246.5,248C 232.5,248.667 218.5,248.667 204.5,248C 197.866,241.905 194.699,234.405 195,225.5C 196,223.5 197,221.5 198,219.5C 209.494,209.504 222.661,202.837 237.5,199.5 Z"/></g>
<g><path style="opacity:1" fill="#fc8464" d="M 264.5,199.5 C 283.368,201.02 299.535,208.353 313,221.5C 316.17,231.33 314.003,239.83 306.5,247C 292.26,248.632 277.927,248.965 263.5,248C 262.667,247.167 261.833,246.333 261,245.5C 260.333,231.5 260.333,217.5 261,203.5C 261.69,201.65 262.856,200.316 264.5,199.5 Z"/></g>
<g><path style="opacity:1" fill="#fb8464" d="M 153.5,227.5 C 154.675,227.281 155.675,227.614 156.5,228.5C 165.669,237.496 173.502,247.496 180,258.5C 180.822,260.788 181.489,263.122 182,265.5C 182.5,276.161 182.667,286.828 182.5,297.5C 181.127,297.657 179.793,297.49 178.5,297C 171.645,291.143 165.145,284.976 159,278.5C 155.876,273.585 153.876,268.252 153,262.5C 152.189,250.757 152.356,239.091 153.5,227.5 Z"/></g>
<g><path style="opacity:1" fill="#fb8364" d="M 353.5,227.5 C 354.5,227.5 355.5,227.5 356.5,227.5C 356.667,240.504 356.5,253.504 356,266.5C 350.596,279.908 341.596,290.241 329,297.5C 328.228,297.355 327.561,297.022 327,296.5C 326.333,287.167 326.333,277.833 327,268.5C 328.228,262.049 330.561,256.049 334,250.5C 340.335,242.667 346.835,235 353.5,227.5 Z"/></g>
<g><path style="opacity:1" fill="#fe8464" d="M 213.5,258.5 C 224.172,258.333 234.839,258.5 245.5,259C 246.333,259.833 247.167,260.667 248,261.5C 248.667,281.833 248.667,302.167 248,322.5C 247.167,323.333 246.333,324.167 245.5,325C 234.833,325.667 224.167,325.667 213.5,325C 211,323.833 209.167,322 208,319.5C 206.374,301.566 206.041,283.566 207,265.5C 208.694,262.642 210.861,260.309 213.5,258.5 Z"/></g>
<g><path style="opacity:1" fill="#fc8464" d="M 264.5,258.5 C 274.839,258.334 285.172,258.5 295.5,259C 299.333,260.167 301.833,262.667 303,266.5C 303.667,283.167 303.667,299.833 303,316.5C 302.052,321.237 299.219,324.071 294.5,325C 284.5,325.667 274.5,325.667 264.5,325C 263,324.167 261.833,323 261,321.5C 260.333,301.833 260.333,282.167 261,262.5C 261.69,260.65 262.856,259.316 264.5,258.5 Z"/></g>
<g><path style="opacity:1" fill="#fb8364" d="M 154.5,289.5 C 155.873,289.343 157.207,289.51 158.5,290C 165.516,296.736 172.349,303.57 179,310.5C 180.275,312.717 181.275,315.051 182,317.5C 182.816,326.079 182.649,334.579 181.5,343C 179.833,343.667 178.167,343.667 176.5,343C 170,335.833 163.5,328.667 157,321.5C 152.739,311.944 151.405,301.944 153,291.5C 153.717,290.956 154.217,290.289 154.5,289.5 Z"/></g>
<g><path style="opacity:1" fill="#fb8364" d="M 351.5,289.5 C 353.39,289.297 354.89,289.963 356,291.5C 356.87,299.897 356.537,308.23 355,316.5C 349.001,326.508 341.501,335.341 332.5,343C 330.299,343.825 328.466,343.325 327,341.5C 326.124,332.77 326.458,324.104 328,315.5C 329,313.5 330,311.5 331,309.5C 337.729,302.603 344.562,295.937 351.5,289.5 Z"/></g>
<g><path style="opacity:1" fill="#fc024f" d="M 149.5,330.5 C 150.873,330.343 152.207,330.51 153.5,331C 175.731,349.912 189.564,373.745 195,402.5C 195.816,411.412 195.65,420.245 194.5,429C 190.418,430.293 187.251,429.126 185,425.5C 175.708,413.873 166.041,402.539 156,391.5C 148.91,382.231 145.41,371.731 145.5,360C 146.036,350.807 146.869,341.64 148,332.5C 148.717,331.956 149.217,331.289 149.5,330.5 Z"/></g>
<g><path style="opacity:1" fill="#fc024f" d="M 355.5,330.5 C 358.547,329.855 360.713,330.855 362,333.5C 363.333,346.478 363.666,359.478 363,372.5C 360.643,380.215 356.976,387.215 352,393.5C 341.647,405.019 331.48,416.685 321.5,428.5C 318.709,430.04 316.209,429.706 314,427.5C 312.06,401.592 318.393,377.926 333,356.5C 340.336,347.666 347.836,338.999 355.5,330.5 Z"/></g>
<g><path style="opacity:1" fill="#fd014f" d="M 217.5,332.5 C 226.839,332.334 236.173,332.5 245.5,333C 246.333,333.833 247.167,334.667 248,335.5C 248.667,382.167 248.667,428.833 248,475.5C 244.626,478.405 241.626,478.072 239,474.5C 214.651,433.084 204.651,388.418 209,340.5C 211.098,336.897 213.932,334.23 217.5,332.5 Z"/></g>
<g><path style="opacity:1" fill="#fb024f" d="M 264.5,332.5 C 273.839,332.334 283.173,332.5 292.5,333C 296.667,334.5 299.5,337.333 301,341.5C 304.629,383.402 296.962,423.069 278,460.5C 275.079,465.341 272.412,470.341 270,475.5C 266.706,478.311 263.706,477.978 261,474.5C 260.333,428.5 260.333,382.5 261,336.5C 261.69,334.65 262.856,333.316 264.5,332.5 Z"/></g>
</svg>
