<?xml version="1.0" encoding="UTF-8"?>
<!DOCTYPE svg PUBLIC "-//W3C//DTD SVG 1.1//EN" "http://www.w3.org/Graphics/SVG/1.1/DTD/svg11.dtd">
<svg xmlns="http://www.w3.org/2000/svg" version="1.1" width="512px" height="512px" style="shape-rendering:geometricPrecision; text-rendering:geometricPrecision; image-rendering:optimizeQuality; fill-rule:evenodd; clip-rule:evenodd" xmlns:xlink="http://www.w3.org/1999/xlink">
<g><path style="opacity:0.991" fill="#484f69" d="M 111.5,6.5 C 205.501,6.33334 299.501,6.5 393.5,7C 395.286,7.78451 396.786,8.95118 398,10.5C 399.641,37.7713 399.974,65.1047 399,92.5C 394.436,103.97 388.103,114.303 380,123.5C 375.416,130.671 373.249,138.504 373.5,147C 375.627,166.261 378.46,185.428 382,204.5C 381.893,235.165 381.893,265.832 382,296.5C 407.269,348.242 419.936,402.909 420,460.5C 408.156,471.012 394.656,478.845 379.5,484C 342.223,496.754 303.89,502.421 264.5,501C 261.572,499.74 259.739,497.573 259,494.5C 257.155,482.431 254.989,470.431 252.5,458.5C 250,471.5 247.5,484.5 245,497.5C 243.786,499.049 242.286,500.215 240.5,501C 199.227,502.58 159.227,496.247 120.5,482C 107.119,477.233 95.2854,470.067 85,460.5C 84.9252,402.873 97.5919,348.206 123,296.5C 123.056,265.833 123.056,235.166 123,204.5C 126.347,185.567 129.181,166.567 131.5,147.5C 131.799,138.829 129.633,130.829 125,123.5C 116.897,114.303 110.564,103.97 106,92.5C 105.333,66.1667 105.333,39.8333 106,13.5C 106.938,10.4025 108.772,8.06914 111.5,6.5 Z"/></g>
<g><path style="opacity:1" fill="#9eaacd" d="M 175.5,24.5 C 198.169,24.3334 220.836,24.5 243.5,25C 244.701,25.9025 245.535,27.0692 246,28.5C 246.667,35.1667 246.667,41.8333 246,48.5C 243.705,50.9378 240.872,52.4378 237.5,53C 222.058,55.2586 207.391,59.9253 193.5,67C 191.833,67.6667 190.167,67.6667 188.5,67C 177.334,56.5111 171.834,43.6777 172,28.5C 172.69,26.6498 173.856,25.3164 175.5,24.5 Z"/></g>
<g><path style="opacity:1" fill="#9eaacd" d="M 261.5,24.5 C 284.169,24.3334 306.836,24.5 329.5,25C 333.367,28.6602 334.534,33.1602 333,38.5C 330.281,49.1106 325.114,58.2773 317.5,66C 316.127,66.8749 314.627,67.3749 313,67.5C 296.063,60.2238 278.563,54.7238 260.5,51C 259.874,50.2496 259.374,49.4162 259,48.5C 258.333,41.5 258.333,34.5 259,27.5C 260.045,26.6266 260.878,25.6266 261.5,24.5 Z"/></g>
<g><path style="opacity:1" fill="#9eaacd" d="M 235.5,63.5 C 239.603,62.7691 243.103,63.7691 246,66.5C 246.967,81.5931 246.633,96.5931 245,111.5C 237.91,112.158 230.743,112.492 223.5,112.5C 215.734,112.635 208.067,112.135 200.5,111C 194.417,104.673 191.917,97.1733 193,88.5C 193.667,87.1667 194.333,85.8333 195,84.5C 206.686,73.9076 220.186,66.9076 235.5,63.5 Z"/></g>
<g><path style="opacity:1" fill="#9eaacd" d="M 261.5,63.5 C 280.026,65.1713 296.193,72.1713 310,84.5C 312.34,88.5554 313.007,92.8887 312,97.5C 310.335,102.49 307.835,106.99 304.5,111C 296.933,112.135 289.266,112.635 281.5,112.5C 274.257,112.492 267.09,112.158 260,111.5C 258.367,96.5931 258.033,81.5931 259,66.5C 260.045,65.6266 260.878,64.6266 261.5,63.5 Z"/></g>
<g><path style="opacity:1" fill="#9da9cc" d="M 151.5,91.5 C 154.056,92.5434 156.223,94.2101 158,96.5C 162.667,101.833 167.333,107.167 172,112.5C 179.135,122.538 181.968,133.705 180.5,146C 180.333,151.167 180.167,156.333 180,161.5C 179.586,161.957 179.086,162.291 178.5,162.5C 167.761,155.595 159.261,146.595 153,135.5C 150.325,120.874 149.825,106.207 151.5,91.5 Z"/></g>
<g><path style="opacity:1" fill="#9da9cc" d="M 351.5,91.5 C 352.496,91.4142 353.329,91.7476 354,92.5C 354.667,103.833 354.667,115.167 354,126.5C 353.037,133.058 350.704,139.058 347,144.5C 340.448,150.853 333.615,156.853 326.5,162.5C 325.914,162.291 325.414,161.957 325,161.5C 324.333,151.167 324.333,140.833 325,130.5C 326.58,124.008 329.246,118.008 333,112.5C 339.375,105.629 345.542,98.6286 351.5,91.5 Z"/></g>
<g><path style="opacity:1" fill="#9eaacd" d="M 211.5,122.5 C 221.839,122.334 232.172,122.5 242.5,123C 244.333,123.5 245.5,124.667 246,126.5C 246.667,146.167 246.667,165.833 246,185.5C 245.535,186.931 244.701,188.097 243.5,189C 232.833,189.667 222.167,189.667 211.5,189C 208.667,187.5 206.5,185.333 205,182.5C 204.333,164.833 204.333,147.167 205,129.5C 206.694,126.642 208.861,124.309 211.5,122.5 Z"/></g>
<g><path style="opacity:1" fill="#9eaacd" d="M 261.5,122.5 C 271.839,122.334 282.172,122.5 292.5,123C 295.196,123.69 297.363,125.19 299,127.5C 300.64,145.743 300.973,164.076 300,182.5C 298.878,184.624 297.378,186.457 295.5,188C 289.605,189.124 283.605,189.624 277.5,189.5C 272.167,189.333 266.833,189.167 261.5,189C 261,188.5 260.5,188 260,187.5C 258.357,166.923 258.024,146.256 259,125.5C 260.045,124.627 260.878,123.627 261.5,122.5 Z"/></g>
<g><path style="opacity:1" fill="#9da9cc" d="M 152.5,153.5 C 153.552,153.351 154.552,153.517 155.5,154C 162.636,160.135 169.469,166.635 176,173.5C 177.608,176.382 178.941,179.382 180,182.5C 180.802,190.549 180.635,198.549 179.5,206.5C 177.926,207.631 176.259,207.798 174.5,207C 167.083,199.973 160.25,192.473 154,184.5C 152.803,181.911 151.803,179.244 151,176.5C 150.333,169.5 150.333,162.5 151,155.5C 151.717,154.956 152.217,154.289 152.5,153.5 Z"/></g>
<g><path style="opacity:1" fill="#9da9cc" d="M 349.5,153.5 C 351.39,153.297 352.89,153.963 354,155.5C 355.136,164.673 354.469,173.673 352,182.5C 345.422,191.135 338.255,199.302 330.5,207C 328.741,207.798 327.074,207.631 325.5,206.5C 324.364,198.215 324.197,189.882 325,181.5C 325.862,179.913 326.529,178.246 327,176.5C 334.032,168.302 341.532,160.635 349.5,153.5 Z"/></g>
<g><path style="opacity:1" fill="#9da9cc" d="M 147.5,189.5 C 148.873,189.343 150.207,189.51 151.5,190C 168.788,205.284 181.288,223.784 189,245.5C 193.133,258.885 194.466,272.552 193,286.5C 191.192,288.396 189.025,288.896 186.5,288C 174.646,275.114 163.146,261.947 152,248.5C 145.738,238.787 142.904,228.12 143.5,216.5C 143.669,209.144 144.169,201.811 145,194.5C 145.366,192.548 146.199,190.882 147.5,189.5 Z"/></g>
<g><path style="opacity:1" fill="#9da9cc" d="M 353.5,189.5 C 356.808,188.974 358.974,190.307 360,193.5C 361.105,205.153 361.438,216.819 361,228.5C 359.505,235.656 356.838,242.323 353,248.5C 341.854,261.947 330.354,275.114 318.5,288C 316.421,288.808 314.421,288.641 312.5,287.5C 309.507,259.807 316.34,234.807 333,212.5C 340.041,204.962 346.874,197.296 353.5,189.5 Z"/></g>
<g><path style="opacity:1" fill="#9eaacd" d="M 212.5,197.5 C 223.172,197.333 233.839,197.5 244.5,198C 245,198.5 245.5,199 246,199.5C 246.667,245.833 246.667,292.167 246,338.5C 243.872,341.458 241.206,342.124 238,340.5C 212.94,299.31 202.273,254.643 206,206.5C 207.211,202.721 209.377,199.721 212.5,197.5 Z"/></g>
<g><path style="opacity:1" fill="#9eaacd" d="M 260.5,197.5 C 271.603,197.046 282.603,197.546 293.5,199C 296.187,200.875 298.021,203.375 299,206.5C 302.834,254.809 292.001,299.476 266.5,340.5C 263.42,342.105 260.92,341.438 259,338.5C 258.333,292.167 258.333,245.833 259,199.5C 259.717,198.956 260.217,198.289 260.5,197.5 Z"/></g>
<g><path style="opacity:1" fill="#9da8cb" d="M 143.5,249.5 C 145.39,249.297 146.89,249.963 148,251.5C 152.333,257.833 156.667,264.167 161,270.5C 162.318,273.406 162.652,276.406 162,279.5C 144.676,316.815 129.009,354.815 115,393.5C 113.688,395.658 112.022,395.991 110,394.5C 109.167,384.657 110.167,374.991 113,365.5C 122.382,339.068 132.049,312.735 142,286.5C 143.394,274.22 143.894,261.886 143.5,249.5 Z"/></g>
<g><path style="opacity:1" fill="#9da9cb" d="M 360.5,249.5 C 361.833,249.5 363.167,249.5 364.5,249.5C 364.333,261.171 364.5,272.838 365,284.5C 374.137,309.577 383.47,334.577 393,359.5C 396.952,371.18 398.452,383.18 397.5,395.5C 395.856,395.714 394.356,395.38 393,394.5C 378.897,355.523 363.23,317.19 346,279.5C 345.333,277.167 345.333,274.833 346,272.5C 350.855,264.777 355.688,257.11 360.5,249.5 Z"/></g>
<g><path style="opacity:1" fill="#9eaacd" d="M 160.5,324.5 C 164.888,323.943 168.055,325.61 170,329.5C 175.51,353.874 181.177,378.208 187,402.5C 192.01,429.933 193.843,457.6 192.5,485.5C 167.967,483.962 145.133,476.962 124,464.5C 122.49,443.404 124.823,422.737 131,402.5C 137.94,377.347 146.273,352.68 156,328.5C 157.397,326.93 158.897,325.596 160.5,324.5 Z"/></g>
<g><path style="opacity:1" fill="#9eaacd" d="M 339.5,324.5 C 344.421,324.043 347.921,326.043 350,330.5C 362.834,363.001 372.834,396.334 380,430.5C 381.492,441.794 381.826,453.128 381,464.5C 359.777,476.629 336.944,483.629 312.5,485.5C 311.397,459.327 312.897,433.327 317,407.5C 322.445,380.608 328.778,353.942 336,327.5C 337.145,326.364 338.312,325.364 339.5,324.5 Z"/></g>
<g><path style="opacity:1" fill="#fd014f" d="M 196.5,339.5 C 197.873,339.343 199.207,339.51 200.5,340C 211.211,355.255 222.044,370.421 233,385.5C 237.274,394.362 238.608,403.695 237,413.5C 234.973,438.213 232.807,462.88 230.5,487.5C 226.271,491.687 222.437,491.354 219,486.5C 214.4,470.699 209.4,455.033 204,439.5C 201.227,408.663 198.394,377.829 195.5,347C 195.555,344.413 195.889,341.913 196.5,339.5 Z"/></g>
<g><path style="opacity:1" fill="#fd014f" d="M 304.5,339.5 C 308.894,339.054 310.56,341.054 309.5,345.5C 306.749,375.175 303.916,404.842 301,434.5C 296.612,451.998 291.612,469.331 286,486.5C 281.902,491.804 277.902,491.804 274,486.5C 271.287,456.192 269.287,425.859 268,395.5C 268.942,392.007 270.275,388.674 272,385.5C 282.664,370.01 293.497,354.677 304.5,339.5 Z"/></g>
</svg>
