<?xml version="1.0" encoding="UTF-8"?>
<!DOCTYPE svg PUBLIC "-//W3C//DTD SVG 1.1//EN" "http://www.w3.org/Graphics/SVG/1.1/DTD/svg11.dtd">
<svg xmlns="http://www.w3.org/2000/svg" version="1.1" width="512px" height="512px" style="shape-rendering:geometricPrecision; text-rendering:geometricPrecision; image-rendering:optimizeQuality; fill-rule:evenodd; clip-rule:evenodd" xmlns:xlink="http://www.w3.org/1999/xlink">
<g><path style="opacity:0.991" fill="#484f69" d="M 207.5,36.5 C 209.527,36.3379 211.527,36.5045 213.5,37C 222.601,41.5509 231.935,45.5509 241.5,49C 250.5,51 259.5,51 268.5,49C 278.281,45.2762 287.948,41.2762 297.5,37C 303.15,35.2425 306.983,37.0758 309,42.5C 309.168,50.8532 309.668,59.1866 310.5,67.5C 345.256,84.8784 380.256,101.712 415.5,118C 450.716,138.755 467.05,169.755 464.5,211C 464.134,224.616 462.967,238.116 461,251.5C 479.049,267.587 490.382,287.587 495,311.5C 497.088,328.016 499.255,344.516 501.5,361C 499.95,401.878 479.617,428.212 440.5,440C 437.833,440.667 435.167,440.667 432.5,440C 421.931,429.699 415.431,417.199 413,402.5C 410.879,389.496 409.879,376.496 410,363.5C 405.241,356.985 400.241,350.652 395,344.5C 391.389,350.444 387.389,356.111 383,361.5C 377.281,371.096 375.281,381.429 377,392.5C 380.104,410.292 382.938,428.125 385.5,446C 385.678,452.157 382.678,455.49 376.5,456C 347.858,461.795 319.191,467.462 290.5,473C 269.209,475.873 247.876,476.206 226.5,474C 193.657,468.098 160.99,461.431 128.5,454C 126.408,452.147 125.408,449.814 125.5,447C 128.171,429.474 131.004,411.974 134,394.5C 135.851,383.232 134.184,372.565 129,362.5C 124.279,356.779 119.946,350.779 116,344.5C 111,350.833 106,357.167 101,363.5C 98.6768,386.117 93.6768,408.117 86,429.5C 83.5493,435.089 79.3826,436.922 73.5,435C 51.6225,429.156 33.4558,417.656 19,400.5C 6.07129,379.879 4.07129,358.213 13,335.5C 13.9351,302.322 26.2685,274.322 50,251.5C 49.1952,241.855 48.1952,232.188 47,222.5C 44.8514,198.39 48.8514,175.39 59,153.5C 67.5,139.667 78.6667,128.5 92.5,120C 128.469,102.683 164.469,85.3494 200.5,68C 201.317,59.912 201.817,51.7453 202,43.5C 202.938,40.4025 204.772,38.0691 207.5,36.5 Z"/></g>
<g><path style="opacity:1" fill="#9da9cb" d="M 216.5,59.5 C 219.325,59.0807 221.491,60.0807 223,62.5C 228.391,69.5592 233.391,76.8926 238,84.5C 243.535,100.771 248.868,117.104 254,133.5C 254.833,139.333 252.333,141.833 246.5,141C 231.416,122.329 221.583,101.163 217,77.5C 216.501,71.5092 216.334,65.5092 216.5,59.5 Z"/></g>
<g><path style="opacity:1" fill="#9da9cc" d="M 290.5,59.5 C 291.833,59.5 293.167,59.5 294.5,59.5C 295.781,74.8141 293.281,89.4808 287,103.5C 281.681,115.479 275.347,126.813 268,137.5C 263.034,143.132 259.2,142.466 256.5,135.5C 262.372,117.05 268.539,98.7168 275,80.5C 280.176,73.4704 285.343,66.4704 290.5,59.5 Z"/></g>
<g><path style="opacity:1" fill="#9da9cc" d="M 197.5,83.5 C 200.187,83.3359 202.854,83.5026 205.5,84C 207.667,84.8333 209.167,86.3333 210,88.5C 213.322,100.145 217.489,111.478 222.5,122.5C 222.06,125.214 220.726,127.38 218.5,129C 214.833,129.667 211.167,129.667 207.5,129C 187.52,125.241 167.52,121.574 147.5,118C 142.632,115.523 142.299,112.523 146.5,109C 163.735,100.768 180.735,92.2684 197.5,83.5 Z"/></g>
<g><path style="opacity:1" fill="#9eaacd" d="M 305.5,83.5 C 310.901,82.9664 315.901,84.133 320.5,87C 335.469,94.4844 350.469,101.984 365.5,109.5C 368.536,113.189 367.87,116.022 363.5,118C 341.314,121.704 319.147,125.537 297,129.5C 290.752,129.024 288.419,125.69 290,119.5C 294.654,109.873 298.32,99.8729 301,89.5C 302.332,87.34 303.832,85.34 305.5,83.5 Z"/></g>
<g><path style="opacity:1" fill="#9eaacd" d="M 114.5,123.5 C 133.889,121.862 152.223,125.362 169.5,134C 159.573,135.297 150.906,139.297 143.5,146C 135.595,153.334 128.762,161.501 123,170.5C 116.749,182.927 111.082,195.594 106,208.5C 94.3151,223.018 81.1484,236.018 66.5,247.5C 64.6474,243.764 63.4808,239.764 63,235.5C 59.9645,216.478 59.9645,197.478 63,178.5C 67.2122,157.3 78.7122,141.466 97.5,131C 103.257,128.45 108.923,125.95 114.5,123.5 Z"/></g>
<g><path style="opacity:1" fill="#9eaacd" d="M 371.5,123.5 C 401.703,120.853 424.87,132.186 441,157.5C 449.589,176.957 452.589,197.29 450,218.5C 448.959,228.54 447.625,238.54 446,248.5C 431.037,237.205 417.704,224.205 406,209.5C 400.675,197.534 395.341,185.534 390,173.5C 380.313,156.145 366.48,143.311 348.5,135C 346.167,134.667 343.833,134.333 341.5,134C 351.275,129.576 361.275,126.076 371.5,123.5 Z"/></g>
<g><path style="opacity:1" fill="#9eaacd" d="M 179.5,135.5 C 189.886,134.531 199.886,136.031 209.5,140C 223.138,144.9 235.638,151.733 247,160.5C 247.667,161.833 248.333,163.167 249,164.5C 249.667,182.833 249.667,201.167 249,219.5C 247.776,224.789 244.942,228.955 240.5,232C 216.694,239.49 192.86,246.99 169,254.5C 164.237,253.801 159.737,252.301 155.5,250C 149.554,244.054 143.554,238.054 137.5,232C 129.761,226.196 121.094,222.53 111.5,221C 110.196,220.196 109.529,219.029 109.5,217.5C 113.318,211.205 117.151,204.871 121,198.5C 130.358,167.979 149.858,146.979 179.5,135.5 Z"/></g>
<g><path style="opacity:1" fill="#9eaacd" d="M 313.5,135.5 C 325.756,133.898 337.089,136.398 347.5,143C 369.871,156.712 384.704,176.212 392,201.5C 394.753,206.008 397.753,210.341 401,214.5C 401.896,217.025 401.396,219.192 399.5,221C 391.195,222.434 383.528,225.434 376.5,230C 369.833,235.333 363.833,241.333 358.5,248C 352.441,252.179 345.774,254.179 338.5,254C 316.669,246.389 294.669,239.389 272.5,233C 267.123,229.957 263.623,225.457 262,219.5C 261.038,200.435 261.372,181.435 263,162.5C 264.141,160.391 265.641,158.558 267.5,157C 282.086,147.984 297.419,140.817 313.5,135.5 Z"/></g>
<g><path style="opacity:1" fill="#fd014f" d="M 97.5,231.5 C 102.673,231.668 106.506,234.002 109,238.5C 111.199,279.035 101.199,316.368 79,350.5C 73.8333,358.333 67.3333,364.833 59.5,370C 53.9436,371.778 50.1102,369.945 48,364.5C 46.6622,350.642 45.1622,336.809 43.5,323C 43.5325,318.444 44.0325,313.944 45,309.5C 52.1376,291.087 59.4709,272.754 67,254.5C 77.9175,247.738 88.0842,240.072 97.5,231.5 Z"/></g>
<g><path style="opacity:1" fill="#fd014f" d="M 409.5,231.5 C 410.873,231.343 412.207,231.51 413.5,232C 423.911,239.955 434.411,247.788 445,255.5C 452.617,274.399 459.95,293.399 467,312.5C 466.92,330.233 465.586,347.9 463,365.5C 459.634,370.609 455.134,371.776 449.5,369C 432.425,353.033 420.259,333.866 413,311.5C 408.868,299.304 405.201,286.97 402,274.5C 401.333,262.833 401.333,251.167 402,239.5C 403.69,235.979 406.19,233.312 409.5,231.5 Z"/></g>
<g><path style="opacity:1" fill="#9eaacd" d="M 241.5,243.5 C 244.652,242.959 247.152,243.959 249,246.5C 249.667,260.5 249.667,274.5 249,288.5C 247.681,290.487 245.848,291.654 243.5,292C 226.463,294.467 210.296,299.634 195,307.5C 189.679,304.846 185.679,300.846 183,295.5C 178.578,288.234 175.745,280.4 174.5,272C 174.884,268.572 176.551,265.905 179.5,264C 200.624,258.236 221.29,251.403 241.5,243.5 Z"/></g>
<g><path style="opacity:1" fill="#9da9cc" d="M 265.5,243.5 C 289.136,250.879 312.636,258.546 336,266.5C 338.03,272.255 337.696,277.922 335,283.5C 331.774,292.055 326.941,299.555 320.5,306C 319.391,306.638 318.225,307.138 317,307.5C 301.312,299.785 284.812,294.619 267.5,292C 265.919,291.293 264.419,290.46 263,289.5C 261.369,275.594 261.036,261.594 262,247.5C 263.376,246.295 264.542,244.962 265.5,243.5 Z"/></g>
<g><path style="opacity:1" fill="#fb8364" d="M 47.5,276.5 C 48.5,276.5 49.5,276.5 50.5,276.5C 47.6394,284.565 44.4727,292.565 41,300.5C 39.587,304.739 38.587,309.072 38,313.5C 37.5001,328.496 37.3334,343.496 37.5,358.5C 36.0222,358.762 34.6888,358.429 33.5,357.5C 25.8561,345.94 23.3561,333.274 26,319.5C 28.413,302.674 35.5796,288.341 47.5,276.5 Z"/></g>
<g><path style="opacity:1" fill="#f88364" d="M 460.5,276.5 C 467.782,280.284 473.282,285.951 477,293.5C 484.076,308.36 487.076,324.027 486,340.5C 483.606,346.287 480.94,351.954 478,357.5C 476.644,358.38 475.144,358.714 473.5,358.5C 473.667,343.163 473.5,327.83 473,312.5C 470.972,301.081 466.972,290.414 461,280.5C 460.51,279.207 460.343,277.873 460.5,276.5 Z"/></g>
<g><path style="opacity:1" fill="#f88264" d="M 109.5,296.5 C 112.069,303.93 111.902,311.596 109,319.5C 105.067,330.381 98.9007,339.714 90.5,347.5C 89.3861,346.277 89.2195,344.944 90,343.5C 97.6197,328.265 104.12,312.599 109.5,296.5 Z"/></g>
<g><path style="opacity:1" fill="#f78264" d="M 399.5,296.5 C 400.5,296.5 401.5,296.5 402.5,296.5C 407.524,313.066 414.024,329.066 422,344.5C 422.749,345.635 422.583,346.635 421.5,347.5C 406.227,333.951 398.894,316.951 399.5,296.5 Z"/></g>
<g><path style="opacity:1" fill="#9eaacd" d="M 237.5,301.5 C 240.518,301.335 243.518,301.502 246.5,302C 247.667,302.5 248.5,303.333 249,304.5C 249.816,319.212 249.65,333.878 248.5,348.5C 247.975,349.192 247.308,349.692 246.5,350C 239.833,350.167 233.167,350.333 226.5,350.5C 206.067,355.215 195.9,347.215 196,326.5C 199.57,319.964 204.737,315.131 211.5,312C 219.774,307.194 228.441,303.694 237.5,301.5 Z"/></g>
<g><path style="opacity:1" fill="#9eaacd" d="M 264.5,301.5 C 283.794,302.734 300.294,310.067 314,323.5C 317.158,334.671 313.991,343.504 304.5,350C 291.167,350.667 277.833,350.667 264.5,350C 263.667,349.167 262.833,348.333 262,347.5C 261.333,333.167 261.333,318.833 262,304.5C 263.045,303.627 263.878,302.627 264.5,301.5 Z"/></g>
<g><path style="opacity:1" fill="#9da9cc" d="M 154.5,329.5 C 155.552,329.351 156.552,329.517 157.5,330C 162.667,335.833 167.833,341.667 173,347.5C 177.92,353.34 181.253,360.007 183,367.5C 183.5,378.161 183.667,388.828 183.5,399.5C 182.127,399.657 180.793,399.49 179.5,399C 172.645,393.143 166.145,386.976 160,380.5C 156.876,375.585 154.876,370.252 154,364.5C 153.189,352.757 153.356,341.091 154.5,329.5 Z"/></g>
<g><path style="opacity:1" fill="#9da9cc" d="M 354.5,329.5 C 355.5,329.5 356.5,329.5 357.5,329.5C 357.667,342.171 357.5,354.838 357,367.5C 355.476,372.882 353.142,377.882 350,382.5C 343.616,388.555 336.949,394.222 330,399.5C 329.228,399.355 328.561,399.022 328,398.5C 326.826,386.006 327.493,373.673 330,361.5C 331.746,357.673 333.746,354.007 336,350.5C 342.375,343.629 348.542,336.629 354.5,329.5 Z"/></g>
<g><path style="opacity:1" fill="#9eaacd" d="M 215.5,359.5 C 225.506,359.334 235.506,359.5 245.5,360C 246.667,361.167 247.833,362.333 249,363.5C 249.667,383.5 249.667,403.5 249,423.5C 248.5,425.333 247.333,426.5 245.5,427C 235.5,427.667 225.5,427.667 215.5,427C 211.667,425.833 209.167,423.333 208,419.5C 207.333,401.833 207.333,384.167 208,366.5C 210.015,363.588 212.515,361.255 215.5,359.5 Z"/></g>
<g><path style="opacity:1" fill="#9da9cc" d="M 266.5,359.5 C 276.172,359.334 285.839,359.5 295.5,360C 298.937,361.105 301.437,363.272 303,366.5C 303.667,384.5 303.667,402.5 303,420.5C 301.437,423.728 298.937,425.895 295.5,427C 285.5,427.667 275.5,427.667 265.5,427C 264.333,425.833 263.167,424.667 262,423.5C 261.333,403.5 261.333,383.5 262,363.5C 263.397,361.93 264.897,360.596 266.5,359.5 Z"/></g>
<g><path style="opacity:1" fill="#9da9cc" d="M 155.5,391.5 C 156.873,391.343 158.207,391.51 159.5,392C 165.762,397.718 171.929,403.551 178,409.5C 182.864,416.026 184.698,423.36 183.5,431.5C 183.333,435.5 183.167,439.5 183,443.5C 181.534,445.325 179.701,445.825 177.5,445C 172.366,438.865 166.866,433.031 161,427.5C 155.484,420.634 152.984,412.8 153.5,404C 153.667,400.5 153.833,397 154,393.5C 154.717,392.956 155.217,392.289 155.5,391.5 Z"/></g>
<g><path style="opacity:1" fill="#9da9cc" d="M 352.5,391.5 C 354.39,391.297 355.89,391.963 357,393.5C 358.136,402.673 357.469,411.673 355,420.5C 348.206,428.963 341.039,437.13 333.5,445C 331.299,445.825 329.466,445.325 328,443.5C 327.333,435.833 327.333,428.167 328,420.5C 329.122,416.049 331.122,412.049 334,408.5C 340.363,402.967 346.529,397.301 352.5,391.5 Z"/></g>
</svg>
