<?xml version="1.0" encoding="UTF-8"?>
<!DOCTYPE svg PUBLIC "-//W3C//DTD SVG 1.1//EN" "http://www.w3.org/Graphics/SVG/1.1/DTD/svg11.dtd">
<svg xmlns="http://www.w3.org/2000/svg" version="1.1" width="512px" height="512px" style="shape-rendering:geometricPrecision; text-rendering:geometricPrecision; image-rendering:optimizeQuality; fill-rule:evenodd; clip-rule:evenodd" xmlns:xlink="http://www.w3.org/1999/xlink">
<g><path style="opacity:0.986" fill="#494e68" d="M 123.5,8.5 C 148.836,8.33336 174.169,8.50003 199.5,9C 206.67,10.4564 210.17,14.9564 210,22.5C 215.386,51.0976 220.386,79.7643 225,108.5C 233.304,151.75 232.304,194.75 222,237.5C 216.51,257.795 211.176,278.128 206,298.5C 204.016,307.068 202.683,315.735 202,324.5C 201.098,374.221 203.931,423.721 210.5,473C 210.611,482 207.945,490 202.5,497C 200.283,498.275 197.949,499.275 195.5,500C 168.165,500.191 141.165,497.191 114.5,491C 92.5062,486.086 70.8395,480.086 49.5,473C 43.1064,461.883 44.7731,451.883 54.5,443C 56.1667,442 57.8333,441 59.5,440C 81.893,433.536 104.226,426.869 126.5,420C 131.722,417.067 134.555,412.567 135,406.5C 135.667,400.833 135.667,395.167 135,389.5C 132.427,370.537 130.094,351.537 128,332.5C 121.773,292.699 114.773,253.032 107,213.5C 95.8256,147.163 98.8256,81.4966 116,16.5C 117.353,12.6499 119.853,9.9832 123.5,8.5 Z"/></g>
<g><path style="opacity:0.985" fill="#484e68" d="M 305.5,8.5 C 330.836,8.33336 356.169,8.50003 381.5,9C 384.583,9.78597 386.749,11.6193 388,14.5C 406.545,82.1095 409.545,150.443 397,219.5C 390.151,254.409 383.818,289.409 378,324.5C 374.278,348.379 372.278,372.379 372,396.5C 373.072,407.762 377.905,416.929 386.5,424C 407.569,429.801 428.569,435.801 449.5,442C 458.613,449.669 461.446,459.169 458,470.5C 456.457,472.378 454.624,473.878 452.5,475C 429.167,480.667 405.833,486.333 382.5,492C 367.811,495.604 352.978,498.438 338,500.5C 315.349,499.015 303.182,487.015 301.5,464.5C 302.793,458.582 303.626,452.582 304,446.5C 304.645,406.16 304.312,365.826 303,325.5C 302.319,316.403 300.986,307.403 299,298.5C 292.998,275.162 286.998,251.829 281,228.5C 274.514,200.121 272.847,171.454 276,142.5C 280.68,98.4411 288.18,54.9411 298.5,12C 300.713,10.3838 303.047,9.21716 305.5,8.5 Z"/></g>
<g><path style="opacity:1" fill="#fd014f" d="M 165.5,23.5 C 168.263,23.7438 170.429,25.0771 172,27.5C 175.885,35.2707 179.219,43.2707 182,51.5C 192.222,85.7219 200.556,120.389 207,155.5C 208.034,183.545 207.367,211.545 205,239.5C 203.434,250.766 200.767,261.766 197,272.5C 192.178,283.189 185.845,284.189 178,275.5C 170.014,261.206 165.014,245.873 163,229.5C 161.107,217.231 159.774,204.898 159,192.5C 156.579,139.795 157.246,87.1286 161,34.5C 161.634,30.419 163.134,26.7523 165.5,23.5 Z"/></g>
<g><path style="opacity:1" fill="#fd024f" d="M 334.5,23.5 C 336.39,23.2965 337.89,23.9632 339,25.5C 340.197,28.0891 341.197,30.7558 342,33.5C 348.304,97.8727 347.97,162.206 341,226.5C 338.775,243.408 333.775,259.408 326,274.5C 318.49,284.395 312.156,283.729 307,272.5C 303.418,264.173 301.085,255.506 300,246.5C 295.077,211.564 294.41,176.564 298,141.5C 304.668,114.817 311.335,88.15 318,61.5C 320.803,52.7584 323.803,44.0917 327,35.5C 328.933,31.0834 331.433,27.0834 334.5,23.5 Z"/></g>
<g><path style="opacity:1" fill="#fd014f" d="M 145.5,27.5 C 148.238,26.9648 150.072,27.9648 151,30.5C 151.104,46.4995 150.77,62.4995 150,78.5C 149.333,104.5 149.333,130.5 150,156.5C 151.682,187.841 153.516,219.174 155.5,250.5C 155.773,257.321 154.939,263.987 153,270.5C 151.601,274.238 148.934,275.904 145,275.5C 139.079,274.929 134.746,271.929 132,266.5C 122.581,247.494 116.248,227.494 113,206.5C 108.188,179.914 107.521,153.247 111,126.5C 116.361,98.7218 124.361,71.7218 135,45.5C 137.755,38.9801 141.255,32.9801 145.5,27.5 Z"/></g>
<g><path style="opacity:1" fill="#fd014f" d="M 353.5,27.5 C 357.526,27.6766 360.359,29.6766 362,33.5C 381.12,72.3115 391.953,113.312 394.5,156.5C 394.001,189.825 388.168,222.159 377,253.5C 374.128,261.413 369.628,268.247 363.5,274C 359.928,275.405 356.261,275.738 352.5,275C 350.959,273.421 349.792,271.587 349,269.5C 347.891,262.743 347.391,255.909 347.5,249C 350.118,217.551 351.952,186.051 353,154.5C 353.85,116.148 353.35,77.8146 351.5,39.5C 351.34,35.3096 352.007,31.3096 353.5,27.5 Z"/></g>
</svg>
