<?xml version="1.0" encoding="UTF-8"?>
<!DOCTYPE svg PUBLIC "-//W3C//DTD SVG 1.1//EN" "http://www.w3.org/Graphics/SVG/1.1/DTD/svg11.dtd">
<svg xmlns="http://www.w3.org/2000/svg" version="1.1" width="512px" height="512px" style="shape-rendering:geometricPrecision; text-rendering:geometricPrecision; image-rendering:optimizeQuality; fill-rule:evenodd; clip-rule:evenodd" xmlns:xlink="http://www.w3.org/1999/xlink">
<g><path style="opacity:0.971" fill="#000000" d="M 322.5,59.5 C 348.426,58.363 364.259,70.363 370,95.5C 371.631,120.204 360.464,135.704 336.5,142C 317.81,144.567 303.31,138.067 293,122.5C 282.819,101.063 286.652,82.563 304.5,67C 310.27,63.6048 316.27,61.1048 322.5,59.5 Z"/></g>
<g><path style="opacity:0.973" fill="#000000" d="M 201.5,121.5 C 210.443,120.766 219.109,121.933 227.5,125C 247.71,135.272 268.044,145.272 288.5,155C 304.569,169.576 306.402,185.742 294,203.5C 273.46,226.371 253.294,249.538 233.5,273C 242.167,279.667 250.833,286.333 259.5,293C 270.697,305.048 272.864,318.548 266,333.5C 240.238,364.685 214.238,395.685 188,426.5C 180.286,432.991 171.786,434.158 162.5,430C 154.113,423.06 151.946,414.56 156,404.5C 176.167,376.833 196.333,349.167 216.5,321.5C 204.663,314.414 192.663,307.58 180.5,301C 165.49,291.468 159.99,277.968 164,260.5C 165.556,255.72 167.889,251.387 171,247.5C 190.619,224.426 210.119,201.259 229.5,178C 220.022,173.512 210.355,169.845 200.5,167C 180.446,182.054 160.113,196.721 139.5,211C 125.245,214.083 116.912,208.416 114.5,194C 115.161,187.345 118.161,182.012 123.5,178C 143.167,162.333 162.833,146.667 182.5,131C 188.378,126.727 194.712,123.561 201.5,121.5 Z"/></g>
<g><path style="opacity:0.956" fill="#000000" d="M 315.5,192.5 C 325.484,202.485 335.15,212.819 344.5,223.5C 360.777,225.252 377.111,226.418 393.5,227C 402.003,229.157 406.336,234.657 406.5,243.5C 405.997,251.839 401.664,257.006 393.5,259C 369.412,259.98 345.412,259.646 321.5,258C 310.956,248.617 300.289,239.45 289.5,230.5C 296.521,222.647 303.354,214.647 310,206.5C 312.684,202.137 314.518,197.47 315.5,192.5 Z"/></g>
<g><path style="opacity:0.961" fill="#000000" d="M 146.5,275.5 C 150.322,294.343 160.989,308.009 178.5,316.5C 179.521,317.002 179.688,317.668 179,318.5C 147.766,348.404 115.933,377.57 83.5,406C 65.4784,409.311 56.6451,401.811 57,383.5C 57.4709,381.754 58.1376,380.087 59,378.5C 88.6569,344.476 117.824,310.143 146.5,275.5 Z"/></g>
<g><path style="opacity:0.957" fill="#000000" d="M 308.5,318.5 C 322.846,316.63 335.513,320.297 346.5,329.5C 365.482,315.439 384.815,314.939 404.5,328C 414.65,337.605 419.65,349.438 419.5,363.5C 429.172,363.334 438.839,363.5 448.5,364C 454.368,367.04 455.868,371.54 453,377.5C 452.097,378.701 450.931,379.535 449.5,380C 437.819,380.167 426.152,380.667 414.5,381.5C 413,383.833 411.5,386.167 410,388.5C 388.986,409.681 367.82,430.681 346.5,451.5C 325.514,431.014 304.68,410.347 284,389.5C 269.197,368.397 270.364,348.23 287.5,329C 293.767,323.867 300.767,320.367 308.5,318.5 Z M 333.5,364.5 C 337.025,364.346 339.859,365.679 342,368.5C 344.941,373.772 348.274,378.772 352,383.5C 359.408,377.214 366.908,371.047 374.5,365C 389.178,364.167 403.845,364.334 418.5,365.5C 417.573,369.95 416.239,374.283 414.5,378.5C 402.514,379.333 390.514,379.833 378.5,380C 369.564,388.276 360.064,395.776 350,402.5C 347.121,401.624 344.787,399.958 343,397.5C 340.028,391.88 336.361,386.88 332,382.5C 324.888,385.973 317.722,389.306 310.5,392.5C 303.274,390.172 301.607,385.672 305.5,379C 315.052,374.392 324.385,369.559 333.5,364.5 Z"/></g>
</svg>
