<?xml version="1.0" encoding="UTF-8"?>
<!DOCTYPE svg PUBLIC "-//W3C//DTD SVG 1.1//EN" "http://www.w3.org/Graphics/SVG/1.1/DTD/svg11.dtd">
<svg xmlns="http://www.w3.org/2000/svg" version="1.1" width="512px" height="512px" style="shape-rendering:geometricPrecision; text-rendering:geometricPrecision; image-rendering:optimizeQuality; fill-rule:evenodd; clip-rule:evenodd" xmlns:xlink="http://www.w3.org/1999/xlink">
<g><path style="opacity:0.991" fill="#484f69" d="M 207.5,36.5 C 209.527,36.3379 211.527,36.5045 213.5,37C 222.601,41.5509 231.935,45.5509 241.5,49C 251.58,51.1618 261.58,50.8284 271.5,48C 280.248,44.5283 288.915,40.8616 297.5,37C 302.853,35.7602 306.686,37.5935 309,42.5C 309.168,50.8532 309.668,59.1866 310.5,67.5C 344.59,84.5451 378.923,101.045 413.5,117C 445.123,134.386 461.957,161.219 464,197.5C 464.667,206.167 464.667,214.833 464,223.5C 462.898,232.868 461.898,242.202 461,251.5C 486.22,275.291 498.22,304.625 497,339.5C 480.333,370.167 463.667,400.833 447,431.5C 445.439,434.783 443.273,437.617 440.5,440C 435.788,441.443 431.955,440.277 429,436.5C 415.831,413.649 409.164,388.982 409,362.5C 404.333,356.5 399.667,350.5 395,344.5C 390.333,351.167 385.667,357.833 381,364.5C 376.827,373.749 375.493,383.416 377,393.5C 380.05,411.133 382.883,428.8 385.5,446.5C 385.751,450.503 384.084,453.336 380.5,455C 350.552,461.256 320.552,467.256 290.5,473C 266.502,476.315 242.502,476.315 218.5,473C 189.169,467.001 159.836,461.001 130.5,455C 126.916,453.336 125.249,450.503 125.5,446.5C 128.117,428.8 130.95,411.133 134,393.5C 135.507,383.416 134.173,373.749 130,364.5C 125.333,357.833 120.667,351.167 116,344.5C 111.333,350.5 106.667,356.5 102,362.5C 101.821,386.882 96.1544,409.882 85,431.5C 80.3574,436.453 75.3574,436.787 70,432.5C 51.918,402.001 33.5847,371.667 15,341.5C 12.3045,305.921 23.9712,275.921 50,251.5C 49.1019,242.202 48.1019,232.868 47,223.5C 44.437,198.208 48.7703,174.208 60,151.5C 69.6432,136.855 82.1432,125.355 97.5,117C 132.077,101.045 166.41,84.5451 200.5,67.5C 201.332,59.1866 201.832,50.8532 202,42.5C 203.021,39.6499 204.854,37.6499 207.5,36.5 Z"/></g>
<g><path style="opacity:1" fill="#9da9cb" d="M 216.5,59.5 C 218.722,59.178 220.556,59.8446 222,61.5C 227.723,68.8907 233.056,76.5574 238,84.5C 244.285,102.323 249.618,120.323 254,138.5C 252.136,141.207 249.636,142.041 246.5,141C 226.706,117.451 216.706,90.2843 216.5,59.5 Z"/></g>
<g><path style="opacity:1" fill="#9da9cb" d="M 290.5,59.5 C 291.833,59.5 293.167,59.5 294.5,59.5C 294.294,90.2843 284.294,117.451 264.5,141C 260.037,142.203 257.37,140.536 256.5,136C 261.767,118.765 267.267,101.598 273,84.5C 278.351,75.7878 284.184,67.4545 290.5,59.5 Z"/></g>
<g><path style="opacity:1" fill="#9da9cc" d="M 197.5,83.5 C 202.901,82.3424 207.067,84.009 210,88.5C 212.68,98.8729 216.346,108.873 221,118.5C 222.296,128.844 217.796,132.344 207.5,129C 187.5,125.333 167.5,121.667 147.5,118C 142.632,115.523 142.299,112.523 146.5,109C 163.623,100.439 180.623,91.9385 197.5,83.5 Z"/></g>
<g><path style="opacity:1" fill="#9da9cc" d="M 305.5,83.5 C 308.187,83.3359 310.854,83.5026 313.5,84C 331.85,92.2578 349.683,101.424 367,111.5C 368.042,114.804 366.875,116.971 363.5,118C 344.767,120.962 326.1,124.295 307.5,128C 302.53,129.081 297.53,129.414 292.5,129C 289.606,126.091 288.773,122.591 290,118.5C 294.654,108.873 298.32,98.8729 301,88.5C 302.366,86.6383 303.866,84.9717 305.5,83.5 Z"/></g>
<g><path style="opacity:1" fill="#fd014f" d="M 114.5,123.5 C 133.889,121.862 152.223,125.362 169.5,134C 161.756,134.705 154.756,137.372 148.5,142C 130.018,156.824 117.518,175.658 111,198.5C 108.839,203.492 106.172,208.159 103,212.5C 91.6147,225.72 79.1147,237.72 65.5,248.5C 60.0764,224.974 59.2431,201.307 63,177.5C 70.1526,149.849 87.3192,131.849 114.5,123.5 Z"/></g>
<g><path style="opacity:1" fill="#fd014f" d="M 371.5,123.5 C 399.096,120.861 421.263,130.527 438,152.5C 448.677,173.225 452.677,195.225 450,218.5C 448.813,228.52 447.479,238.52 446,248.5C 432.071,237.907 419.405,225.907 408,212.5C 404.828,208.159 402.161,203.492 400,198.5C 392.578,171.791 377.078,151.291 353.5,137C 349.58,135.687 345.58,134.687 341.5,134C 351.124,129.182 361.124,125.682 371.5,123.5 Z"/></g>
<g><path style="opacity:1" fill="#9eaacd" d="M 179.5,135.5 C 189.886,134.531 199.886,136.031 209.5,140C 223.138,144.9 235.638,151.733 247,160.5C 247.667,161.833 248.333,163.167 249,164.5C 249.667,182.833 249.667,201.167 249,219.5C 247.792,224.719 244.959,228.886 240.5,232C 216.528,239.102 192.695,246.602 169,254.5C 164.237,253.801 159.737,252.301 155.5,250C 149.289,244.279 143.289,238.279 137.5,232C 129.597,226.586 120.931,222.919 111.5,221C 110.106,220.044 109.439,218.711 109.5,217C 118.292,204.249 125.125,190.416 130,175.5C 142.535,157.119 159.035,143.786 179.5,135.5 Z"/></g>
<g><path style="opacity:1" fill="#9eaacd" d="M 313.5,135.5 C 325.756,133.898 337.089,136.398 347.5,143C 360.955,151.455 372.122,162.288 381,175.5C 385.308,189.783 391.974,202.783 401,214.5C 401.896,217.025 401.396,219.192 399.5,221C 389.906,222.53 381.239,226.196 373.5,232C 368.133,237.032 363.133,242.365 358.5,248C 352.128,252.342 345.128,254.342 337.5,254C 316.103,246.201 294.436,239.201 272.5,233C 267.527,230.031 264.027,225.864 262,220.5C 261.333,201.833 261.333,183.167 262,164.5C 262.667,163.167 263.333,161.833 264,160.5C 279.125,149.354 295.625,141.021 313.5,135.5 Z"/></g>
<g><path style="opacity:1" fill="#9eaacd" d="M 97.5,231.5 C 103.161,231.578 106.995,234.244 109,239.5C 109.667,251.167 109.667,262.833 109,274.5C 103.542,299.544 94.5422,323.21 82,345.5C 75.8603,354.971 68.3603,363.137 59.5,370C 53.8503,371.758 50.017,369.924 48,364.5C 46.1399,350.039 44.6399,335.539 43.5,321C 43.5154,317.097 44.0154,313.264 45,309.5C 52.0565,291.054 59.3898,272.721 67,254.5C 77.6829,247.42 87.8496,239.754 97.5,231.5 Z"/></g>
<g><path style="opacity:1" fill="#9eaacd" d="M 409.5,231.5 C 410.873,231.343 412.207,231.51 413.5,232C 423.911,239.955 434.411,247.788 445,255.5C 452.729,274.689 460.063,294.022 467,313.5C 466.812,330.57 465.479,347.57 463,364.5C 460.116,370.543 455.616,372.043 449.5,369C 435.568,356.713 425.068,341.879 418,324.5C 411.432,308.229 406.099,291.563 402,274.5C 401.333,262.833 401.333,251.167 402,239.5C 403.353,235.65 405.853,232.983 409.5,231.5 Z"/></g>
<g><path style="opacity:1" fill="#9ea9cc" d="M 241.5,243.5 C 244.785,243.269 247.285,244.603 249,247.5C 249.964,261.594 249.631,275.594 248,289.5C 237.519,293.029 226.852,296.029 216,298.5C 208.553,301.224 201.22,304.224 194,307.5C 192.51,306.683 191.01,305.85 189.5,305C 183.247,297.33 178.414,288.83 175,279.5C 174.333,275.5 174.333,271.5 175,267.5C 176.214,265.951 177.714,264.785 179.5,264C 200.495,257.835 221.161,251.001 241.5,243.5 Z"/></g>
<g><path style="opacity:1" fill="#9eaacd" d="M 265.5,243.5 C 288.105,250.757 310.772,257.923 333.5,265C 334.333,265.833 335.167,266.667 336,267.5C 336.08,283.182 330.247,296.348 318.5,307C 317.167,307.667 315.833,307.667 314.5,307C 299.594,299.689 283.927,294.689 267.5,292C 265.152,291.654 263.319,290.487 262,288.5C 261.333,274.5 261.333,260.5 262,246.5C 263.145,245.364 264.312,244.364 265.5,243.5 Z"/></g>
<g><path style="opacity:1" fill="#9ca7ca" d="M 47.5,276.5 C 48.5,276.5 49.5,276.5 50.5,276.5C 48.2485,283.679 45.4152,290.679 42,297.5C 40.0392,302.677 38.7058,308.01 38,313.5C 37.5001,328.496 37.3334,343.496 37.5,358.5C 35.8561,358.714 34.3561,358.38 33,357.5C 26.553,347.712 23.8863,337.045 25,325.5C 26.5903,306.327 34.0903,289.994 47.5,276.5 Z"/></g>
<g><path style="opacity:1" fill="#9ca7ca" d="M 460.5,276.5 C 466.019,279.177 470.519,283.177 474,288.5C 483.198,304.29 487.198,321.29 486,339.5C 483.888,345.726 481.222,351.726 478,357.5C 476.644,358.38 475.144,358.714 473.5,358.5C 473.667,343.496 473.5,328.496 473,313.5C 470.981,301.793 466.981,290.793 461,280.5C 460.51,279.207 460.343,277.873 460.5,276.5 Z"/></g>
<g><path style="opacity:1" fill="#9ba7c9" d="M 109.5,296.5 C 110.812,298.743 111.478,301.41 111.5,304.5C 110.032,321.588 103.032,335.921 90.5,347.5C 89.6919,347.192 89.0253,346.692 88.5,346C 96.7466,330.009 103.747,313.509 109.5,296.5 Z"/></g>
<g><path style="opacity:1" fill="#9ba7c9" d="M 399.5,296.5 C 401.411,296.574 402.578,297.574 403,299.5C 408.267,315.533 414.767,331.033 422.5,346C 421.975,346.692 421.308,347.192 420.5,347.5C 406.062,333.617 399.062,316.617 399.5,296.5 Z"/></g>
<g><path style="opacity:1" fill="#9eaacd" d="M 238.5,301.5 C 242.603,300.769 246.103,301.769 249,304.5C 249.667,318.833 249.667,333.167 249,347.5C 248.167,348.333 247.333,349.167 246.5,350C 232.833,350.667 219.167,350.667 205.5,350C 197.705,343.584 194.539,335.418 196,325.5C 202.021,317.818 209.521,311.985 218.5,308C 225.126,305.29 231.793,303.124 238.5,301.5 Z"/></g>
<g><path style="opacity:1" fill="#9eaacd" d="M 264.5,301.5 C 283.263,302.634 299.429,309.634 313,322.5C 315.458,326.823 316.125,331.49 315,336.5C 312.785,341.1 309.952,345.266 306.5,349C 292.594,350.631 278.594,350.964 264.5,350C 263.667,349.167 262.833,348.333 262,347.5C 261.333,333.167 261.333,318.833 262,304.5C 263.045,303.627 263.878,302.627 264.5,301.5 Z"/></g>
<g><path style="opacity:1" fill="#9da9cc" d="M 154.5,329.5 C 155.675,329.281 156.675,329.614 157.5,330.5C 162.1,336.022 166.933,341.356 172,346.5C 177.54,353.248 181.207,360.914 183,369.5C 183.818,379.411 183.651,389.244 182.5,399C 181.5,399.667 180.5,399.667 179.5,399C 175.167,395.333 170.833,391.667 166.5,388C 159.321,381.808 155.154,373.974 154,364.5C 153.189,352.757 153.356,341.091 154.5,329.5 Z"/></g>
<g><path style="opacity:1" fill="#9da9cc" d="M 354.5,329.5 C 355.496,329.414 356.329,329.748 357,330.5C 357.667,341.833 357.667,353.167 357,364.5C 355.846,373.974 351.679,381.808 344.5,388C 340.167,391.667 335.833,395.333 331.5,399C 330.5,399.667 329.5,399.667 328.5,399C 327.349,389.244 327.182,379.411 328,369.5C 329.228,363.049 331.561,357.049 335,351.5C 341.708,344.295 348.208,336.962 354.5,329.5 Z"/></g>
<g><path style="opacity:1" fill="#9eaacd" d="M 215.5,359.5 C 225.172,359.334 234.839,359.5 244.5,360C 246.286,360.785 247.786,361.951 249,363.5C 249.667,383.5 249.667,403.5 249,423.5C 248.5,425.333 247.333,426.5 245.5,427C 235.5,427.667 225.5,427.667 215.5,427C 212.063,425.895 209.563,423.728 208,420.5C 207.333,402.5 207.333,384.5 208,366.5C 209.742,363.254 212.242,360.921 215.5,359.5 Z"/></g>
<g><path style="opacity:1" fill="#9eaacd" d="M 265.5,359.5 C 275.172,359.334 284.839,359.5 294.5,360C 298.499,360.668 301.332,362.835 303,366.5C 303.667,384.5 303.667,402.5 303,420.5C 301.437,423.728 298.937,425.895 295.5,427C 285.5,427.667 275.5,427.667 265.5,427C 263.667,426.5 262.5,425.333 262,423.5C 261.333,403.5 261.333,383.5 262,363.5C 263.376,362.295 264.542,360.962 265.5,359.5 Z"/></g>
<g><path style="opacity:1" fill="#9da9cc" d="M 155.5,391.5 C 156.873,391.343 158.207,391.51 159.5,392C 165.364,398.199 171.531,404.032 178,409.5C 182.864,416.026 184.698,423.36 183.5,431.5C 183.333,435.5 183.167,439.5 183,443.5C 181.534,445.325 179.701,445.825 177.5,445C 172.032,438.531 166.199,432.364 160,426.5C 153.742,416.395 151.742,405.395 154,393.5C 154.717,392.956 155.217,392.289 155.5,391.5 Z"/></g>
<g><path style="opacity:1" fill="#9da9cc" d="M 351.5,391.5 C 353.722,391.178 355.556,391.845 357,393.5C 359.258,405.395 357.258,416.395 351,426.5C 344.801,432.364 338.968,438.531 333.5,445C 331.299,445.825 329.466,445.325 328,443.5C 327.087,434.424 327.42,425.424 329,416.5C 330.08,414.004 331.414,411.67 333,409.5C 339.671,403.996 345.837,397.996 351.5,391.5 Z"/></g>
</svg>
