<?xml version="1.0" encoding="UTF-8"?>
<!DOCTYPE svg PUBLIC "-//W3C//DTD SVG 1.1//EN" "http://www.w3.org/Graphics/SVG/1.1/DTD/svg11.dtd">
<svg xmlns="http://www.w3.org/2000/svg" version="1.1" width="512px" height="512px" style="shape-rendering:geometricPrecision; text-rendering:geometricPrecision; image-rendering:optimizeQuality; fill-rule:evenodd; clip-rule:evenodd" xmlns:xlink="http://www.w3.org/1999/xlink">
<g><path style="opacity:0.984" fill="#484f69" d="M 33.5,27.5 C 57.7277,26.6452 80.7277,31.4786 102.5,42C 112.553,48.2634 120.719,56.4301 127,66.5C 141.35,88.8708 152.184,112.871 159.5,138.5C 190.471,147.463 212.471,166.796 225.5,196.5C 246.472,202.407 263.972,213.74 278,230.5C 284.493,238.818 290.493,247.485 296,256.5C 304.414,271.663 313.081,286.663 322,301.5C 333.013,319.252 348.513,331.085 368.5,337C 377.679,339.071 386.679,338.405 395.5,335C 399.5,334.333 403.5,334.333 407.5,335C 423.5,339.667 439.5,344.333 455.5,349C 458.349,351.559 459.183,354.726 458,358.5C 454.668,366.087 448.835,370.087 440.5,370.5C 433.507,368.89 426.507,367.723 419.5,367C 440.667,382.833 461.833,398.667 483,414.5C 485.122,418.773 483.955,421.94 479.5,424C 474.734,426.31 469.734,426.977 464.5,426C 451.02,418.93 437.686,411.93 424.5,405C 439,418.833 453.5,432.667 468,446.5C 469.821,448.904 469.654,451.237 467.5,453.5C 459.75,457.592 452.084,457.426 444.5,453C 433.637,441.803 422.471,430.97 411,420.5C 420.512,437.153 430.845,453.486 442,469.5C 444.749,476.775 442.082,480.108 434,479.5C 429.864,479.344 426.031,478.177 422.5,476C 411.333,462.833 400.167,449.667 389,436.5C 396.176,451.182 403.676,465.849 411.5,480.5C 411.471,482.029 410.804,483.196 409.5,484C 400.058,486.517 392.558,483.684 387,475.5C 369.333,449.833 351.667,424.167 334,398.5C 330.861,390.751 327.528,383.084 324,375.5C 320.419,371.248 316.252,367.748 311.5,365C 285.879,357.127 260.546,348.46 235.5,339C 197.792,324.625 171.292,298.792 156,261.5C 146.022,253.689 136.188,245.689 126.5,237.5C 122.851,248.472 118.351,259.139 113,269.5C 107.291,275.54 101.957,281.874 97,288.5C 93.6831,294.117 91.3497,300.117 90,306.5C 89.1735,328.073 89.3402,349.573 90.5,371C 86.2954,393.394 82.462,415.894 79,438.5C 75.073,454.765 65.573,466.598 50.5,474C 39.8551,480.865 30.6884,479.365 23,469.5C 22.0266,467.608 21.3599,465.608 21,463.5C 20.3333,323.5 20.3333,183.5 21,43.5C 22.0672,35.6791 26.2339,30.3458 33.5,27.5 Z"/></g>
<g><path style="opacity:1" fill="#9eaacd" d="M 45.5,32.5 C 87.6234,33.1409 116.123,53.1409 131,92.5C 135.403,103.102 137.403,114.102 137,125.5C 134.683,128.097 131.85,128.93 128.5,128C 115.184,122.339 101.517,117.672 87.5,114C 82.5874,111.711 79.4207,107.877 78,102.5C 69.7006,92.9324 59.2006,87.4324 46.5,86C 41.1557,85.5293 35.8223,85.0293 30.5,84.5C 30.3334,70.1628 30.5001,55.8295 31,41.5C 35.3765,37.5719 40.2098,34.5719 45.5,32.5 Z"/></g>
<g><path style="opacity:1" fill="#9eaacd" d="M 30.5,90.5 C 43.9222,91.585 56.2556,95.7517 67.5,103C 74.4771,109.121 79.3104,116.621 82,125.5C 83.6584,139.907 85.8251,154.241 88.5,168.5C 88.1392,174.192 85.1392,176.525 79.5,175.5C 63.0614,173.038 46.728,170.038 30.5,166.5C 30.5,141.167 30.5,115.833 30.5,90.5 Z"/></g>
<g><path style="opacity:1" fill="#9eaacc" d="M 89.5,126.5 C 90.8734,126.343 92.2068,126.51 93.5,127C 113.287,139.12 129.454,154.954 142,174.5C 147.41,186.32 153.077,197.987 159,209.5C 165.955,218.79 173.288,227.79 181,236.5C 181.896,239.025 181.396,241.192 179.5,243C 175.318,243.611 171.318,242.944 167.5,241C 147.253,233.071 130.086,220.905 116,204.5C 113.566,201.205 111.899,197.538 111,193.5C 106.252,172.256 98.9182,151.923 89,132.5C 88.3224,130.402 88.4891,128.402 89.5,126.5 Z"/></g>
<g><path style="opacity:1" fill="#9da9cc" d="M 124.5,132.5 C 170.688,143.52 200.522,171.853 214,217.5C 215.666,224.163 213.166,226.996 206.5,226C 202.673,224.254 199.007,222.254 195.5,220C 188.524,213.356 181.857,206.356 175.5,199C 170.297,196.23 165.63,192.73 161.5,188.5C 150.846,170.21 138.012,153.543 123,138.5C 122.252,136.16 122.752,134.16 124.5,132.5 Z"/></g>
<g><path style="opacity:1" fill="#9eaacd" d="M 33.5,173.5 C 51.6691,177.7 70.0024,181.2 88.5,184C 92,184.833 94.1667,187 95,190.5C 97.2067,200.534 99.54,210.534 102,220.5C 105.044,238.667 102.044,255.667 93,271.5C 75.7262,290.285 65.5595,312.452 62.5,338C 60.5,338.667 58.5,338.667 56.5,338C 48.3034,329.469 39.8034,321.302 31,313.5C 30.3333,267.5 30.3333,221.5 31,175.5C 31.9947,174.934 32.828,174.267 33.5,173.5 Z"/></g>
<g><path style="opacity:1" fill="#fd014f" d="M 227.5,209.5 C 229.199,209.34 230.866,209.506 232.5,210C 242.538,216.365 251.705,223.865 260,232.5C 269.765,243.596 278.765,255.263 287,267.5C 294.601,280.37 301.934,293.37 309,306.5C 318.333,317.167 328.333,327.167 339,336.5C 343.207,353.262 336.707,361.095 319.5,360C 292.333,338.167 267.833,313.667 246,286.5C 230.573,264.102 223.24,239.436 224,212.5C 225.145,211.364 226.312,210.364 227.5,209.5 Z"/></g>
<g><path style="opacity:1" fill="#f8054f" d="M 199.5,235.5 C 203.182,235.335 206.848,235.501 210.5,236C 211.931,236.465 213.097,237.299 214,238.5C 216.743,247.061 220.076,255.395 224,263.5C 224.611,267.088 223.111,268.254 219.5,267C 212.706,258.537 205.539,250.37 198,242.5C 197.167,239.829 197.667,237.496 199.5,235.5 Z"/></g>
<g><path style="opacity:1" fill="#fc024f" d="M 176.5,249.5 C 180.732,249.778 184.732,250.944 188.5,253C 192.783,255.615 196.783,258.615 200.5,262C 220,280.167 239.5,298.333 259,316.5C 262.333,320.5 265.667,324.5 269,328.5C 272.106,334.218 270.606,336.718 264.5,336C 240.751,325.965 218.418,313.631 197.5,299C 185.58,286.836 177.246,272.502 172.5,256C 173.205,253.458 174.539,251.292 176.5,249.5 Z"/></g>
<g><path style="opacity:1" fill="#9ea9cc" d="M 30.5,327.5 C 38.086,332.912 45.2527,338.912 52,345.5C 53.9355,347.78 54.7689,350.447 54.5,353.5C 49.9608,371.653 44.7941,389.653 39,407.5C 37.3054,410.695 34.8054,413.028 31.5,414.5C 30.5002,385.508 30.1668,356.508 30.5,327.5 Z"/></g>
<g><path style="opacity:1" fill="#9da9cb" d="M 72.5,338.5 C 73.8221,338.33 74.9887,338.663 76,339.5C 81.6436,369.645 78.9769,398.978 68,427.5C 66.4059,429.297 64.4059,430.297 62,430.5C 57.4381,429.568 52.9381,428.401 48.5,427C 45.8523,425.367 44.519,423.033 44.5,420C 52.1472,392.224 61.4805,365.058 72.5,338.5 Z"/></g>
</svg>
