<?xml version="1.0" encoding="UTF-8"?>
<!DOCTYPE svg PUBLIC "-//W3C//DTD SVG 1.1//EN" "http://www.w3.org/Graphics/SVG/1.1/DTD/svg11.dtd">
<svg xmlns="http://www.w3.org/2000/svg" version="1.1" width="512px" height="512px" style="shape-rendering:geometricPrecision; text-rendering:geometricPrecision; image-rendering:optimizeQuality; fill-rule:evenodd; clip-rule:evenodd" xmlns:xlink="http://www.w3.org/1999/xlink">
<g><path style="opacity:0.991" fill="#484f69" d="M 129.5,10.5 C 213.501,10.3333 297.501,10.5 381.5,11C 382.667,12.1667 383.833,13.3333 385,14.5C 384.905,44.8323 384.905,75.1656 385,105.5C 414.724,167.12 427.39,232.12 423,300.5C 421.995,319.89 420.328,339.223 418,358.5C 411.874,402.92 405.208,447.253 398,491.5C 397.654,493.848 396.487,495.681 394.5,497C 377.922,498.153 361.255,498.653 344.5,498.5C 327.745,498.653 311.078,498.153 294.5,497C 285.214,481.494 278.047,464.994 273,447.5C 265.442,420.875 259.608,393.875 255.5,366.5C 251.392,393.875 245.558,420.875 238,447.5C 232.953,464.994 225.786,481.494 216.5,497C 183.919,498.652 151.252,498.985 118.5,498C 116.714,497.215 115.214,496.049 114,494.5C 104.819,443.411 97.1521,392.078 91,340.5C 81.0639,269.927 88.3973,201.26 113,134.5C 117.059,124.715 121.392,115.048 126,105.5C 126.109,75.4988 126.109,45.4988 126,15.5C 126.997,13.6769 128.164,12.0103 129.5,10.5 Z"/></g>
<g><path style="opacity:1" fill="#67708e" d="M 171.5,30.5 C 197.661,29.5022 223.995,29.1688 250.5,29.5C 250.83,48.674 250.497,67.674 249.5,86.5C 249.5,67.8333 249.5,49.1667 249.5,30.5C 223.5,30.5 197.5,30.5 171.5,30.5 Z"/></g>
<g><path style="opacity:1" fill="#9da9cc" d="M 140.5,30.5 C 148.833,30.5 157.167,30.5 165.5,30.5C 166.582,38.1447 167.082,45.8113 167,53.5C 163.425,56.9664 159.092,58.2997 154,57.5C 151.167,57.3333 148.333,57.1667 145.5,57C 142.414,53.0765 140.914,48.5765 141,43.5C 140.501,39.1794 140.334,34.8461 140.5,30.5 Z"/></g>
<g><path style="opacity:1" fill="#9eaacd" d="M 171.5,30.5 C 197.5,30.5 223.5,30.5 249.5,30.5C 249.5,49.1667 249.5,67.8333 249.5,86.5C 247.947,89.254 245.614,90.0874 242.5,89C 232.693,79.5214 222.026,71.1881 210.5,64C 201.265,59.9415 191.598,57.9415 181.5,58C 176.124,55.96 172.957,52.1267 172,46.5C 171.501,41.1771 171.334,35.8437 171.5,30.5 Z"/></g>
<g><path style="opacity:1" fill="#9da9cc" d="M 258.5,30.5 C 284.833,30.5 311.167,30.5 337.5,30.5C 341.797,50.6872 333.797,60.1872 313.5,59C 303.894,61.0852 295.227,65.0852 287.5,71C 280.686,77.2368 273.686,83.2368 266.5,89C 262.834,90.271 260.334,89.1044 259,85.5C 258.5,67.1697 258.333,48.8364 258.5,30.5 Z"/></g>
<g><path style="opacity:1" fill="#9da9cc" d="M 343.5,30.5 C 352.167,30.5 360.833,30.5 369.5,30.5C 368.288,38.4825 367.122,46.4825 366,54.5C 365.167,55.3333 364.333,56.1667 363.5,57C 357.833,57.6667 352.167,57.6667 346.5,57C 344.714,56.2155 343.214,55.0488 342,53.5C 342.083,45.8261 342.583,38.1594 343.5,30.5 Z"/></g>
<g><path style="opacity:1" fill="#fd004f" d="M 153.5,65.5 C 189.196,64.1092 219.03,76.4425 243,102.5C 245.723,105.557 248.056,108.89 250,112.5C 250.667,141.833 250.667,171.167 250,200.5C 233.547,229.87 209.38,239.37 177.5,229C 166.317,222.475 158.817,212.975 155,200.5C 148.858,180.651 145.191,160.318 144,139.5C 143.151,117.811 143.485,96.1444 145,74.5C 146.688,70.3148 149.521,67.3148 153.5,65.5 Z"/></g>
<g><path style="opacity:1" fill="#fd014f" d="M 338.5,65.5 C 344.176,65.3339 349.843,65.5006 355.5,66C 359.275,67.4421 362.108,69.9421 364,73.5C 367.818,113.557 365.485,153.224 357,192.5C 346.576,228.796 323.409,240.963 287.5,229C 275.333,222.167 265.833,212.667 259,200.5C 258.333,171.167 258.333,141.833 259,112.5C 278.41,84.8769 304.91,69.2103 338.5,65.5 Z"/></g>
<g><path style="opacity:1" fill="#9ea9cc" d="M 128.5,160.5 C 130.371,160.859 131.871,161.859 133,163.5C 138.935,181.239 143.935,199.239 148,217.5C 148.667,221.5 148.667,225.5 148,229.5C 136.612,263.273 124.946,296.939 113,330.5C 111.333,331.833 109.667,331.833 108,330.5C 100.746,276.288 105.746,223.288 123,171.5C 124.319,167.528 126.153,163.861 128.5,160.5 Z"/></g>
<g><path style="opacity:1" fill="#9da9cc" d="M 378.5,160.5 C 380.017,160.511 381.184,161.177 382,162.5C 392.847,187.723 399.514,214.056 402,241.5C 403.94,270.837 403.94,300.17 402,329.5C 400,332.167 398,332.167 396,329.5C 384.33,296.489 372.663,263.489 361,230.5C 360.261,224.442 360.594,218.442 362,212.5C 366.016,194.623 371.516,177.289 378.5,160.5 Z"/></g>
<g><path style="opacity:1" fill="#9da9cc" d="M 236.5,232.5 C 241.316,232.32 243.316,234.653 242.5,239.5C 238.276,282.132 234.443,324.798 231,367.5C 226.221,370.87 223.888,369.536 224,363.5C 220.626,327.137 215.126,291.137 207.5,255.5C 206.809,251.193 208.143,247.693 211.5,245C 220.173,241.33 228.506,237.164 236.5,232.5 Z"/></g>
<g><path style="opacity:1" fill="#9da9cc" d="M 268.5,232.5 C 278.321,236.071 287.988,240.238 297.5,245C 300.5,247.667 302.167,251 302.5,255C 298.178,271.976 294.678,289.142 292,306.5C 289.169,327.144 286.503,347.811 284,368.5C 282.333,369.833 280.667,369.833 279,368.5C 274.383,324.878 270.216,281.211 266.5,237.5C 266.437,235.486 267.103,233.819 268.5,232.5 Z"/></g>
<g><path style="opacity:1" fill="#9eaacd" d="M 156.5,235.5 C 163.035,234.381 166.702,237.048 167.5,243.5C 161.788,297.687 158.621,352.02 158,406.5C 155.248,429.839 148.915,452.172 139,473.5C 136.029,477.092 132.696,477.425 129,474.5C 127.956,472.285 127.29,469.952 127,467.5C 124.108,448.483 121.108,429.483 118,410.5C 116.034,395.546 115.034,380.546 115,365.5C 124.562,324.811 136.562,284.811 151,245.5C 152.07,241.689 153.903,238.356 156.5,235.5 Z"/></g>
<g><path style="opacity:1" fill="#9eaacd" d="M 345.5,235.5 C 351.468,234.297 355.301,236.631 357,242.5C 371.962,282.384 384.295,323.051 394,364.5C 394.495,377.882 393.828,391.215 392,404.5C 388.77,427.983 384.77,451.316 380,474.5C 376.304,477.425 372.971,477.092 370,473.5C 361.588,454.93 355.588,435.596 352,415.5C 351.04,358.187 347.54,301.02 341.5,244C 341.667,242.5 341.833,241 342,239.5C 343.376,238.295 344.542,236.962 345.5,235.5 Z"/></g>
<g><path style="opacity:1" fill="#9eaacd" d="M 180.5,244.5 C 187.445,242.775 192.278,245.108 195,251.5C 204.801,301.338 213.635,351.338 221.5,401.5C 221.658,411.229 219.825,420.562 216,429.5C 208.804,446.753 201.804,464.087 195,481.5C 191.333,485.5 187.667,485.5 184,481.5C 172.692,412.933 168.692,343.933 172,274.5C 172.719,266.465 173.719,258.465 175,250.5C 176.36,247.977 178.193,245.977 180.5,244.5 Z"/></g>
<g><path style="opacity:1" fill="#9eaacd" d="M 319.5,244.5 C 325.898,243.053 330.731,245.053 334,250.5C 337.438,273.192 338.938,296.026 338.5,319C 338.414,373.542 333.914,427.708 325,481.5C 319.633,486.159 315.633,485.159 313,478.5C 303.671,456.844 295.338,434.844 288,412.5C 287.213,404.119 287.546,395.786 289,387.5C 297.426,342.184 305.759,296.851 314,251.5C 314.967,248.379 316.8,246.046 319.5,244.5 Z"/></g>
</svg>
