<?xml version="1.0" encoding="UTF-8"?>
<!DOCTYPE svg PUBLIC "-//W3C//DTD SVG 1.1//EN" "http://www.w3.org/Graphics/SVG/1.1/DTD/svg11.dtd">
<svg xmlns="http://www.w3.org/2000/svg" version="1.1" width="512px" height="512px" style="shape-rendering:geometricPrecision; text-rendering:geometricPrecision; image-rendering:optimizeQuality; fill-rule:evenodd; clip-rule:evenodd" xmlns:xlink="http://www.w3.org/1999/xlink">
<g><path style="opacity:0.991" fill="#494f69" d="M 128.5,10.5 C 212.501,10.3333 296.501,10.5 380.5,11C 381.333,11.8333 382.167,12.6667 383,13.5C 384.116,18.5583 384.616,23.7249 384.5,29C 383.977,53.7352 383.311,78.4018 382.5,103C 415.11,169.816 427.943,240.316 421,314.5C 419.586,333.893 417.586,353.227 415,372.5C 408.883,413.2 402.55,453.867 396,494.5C 395.167,495.333 394.333,496.167 393.5,497C 360.585,498.652 327.585,498.985 294.5,498C 289.785,492.077 285.951,485.577 283,478.5C 273.783,455.848 266.783,432.514 262,408.5C 259.116,393.86 256.449,379.193 254,364.5C 249.524,403.406 240.19,441.072 226,477.5C 222.882,484.239 219.382,490.739 215.5,497C 198.755,498.153 181.922,498.653 165,498.5C 148.833,498.333 132.667,498.167 116.5,498C 114.185,496.891 112.685,495.057 112,492.5C 108.1,465.101 103.767,437.768 99,410.5C 89.2007,355.91 85.2007,300.91 87,245.5C 90.6296,196.309 103.296,149.643 125,105.5C 124.75,75.1696 124.75,44.8362 125,14.5C 125.69,12.6498 126.856,11.3164 128.5,10.5 Z"/></g>
<g><path style="opacity:1" fill="#9da9cc" d="M 138.5,30.5 C 147.167,30.5 155.833,30.5 164.5,30.5C 165.252,38.1743 165.752,45.8409 166,53.5C 162.425,56.9664 158.092,58.2997 153,57.5C 150.167,57.3333 147.333,57.1667 144.5,57C 143.667,56.1667 142.833,55.3333 142,54.5C 140.692,46.5105 139.525,38.5105 138.5,30.5 Z"/></g>
<g><path style="opacity:1" fill="#9eaacd" d="M 170.5,30.5 C 196.5,30.5 222.5,30.5 248.5,30.5C 248.667,49.5029 248.5,68.5029 248,87.5C 246.687,88.5728 245.187,89.2395 243.5,89.5C 233.716,82.2238 224.049,74.7238 214.5,67C 204.079,60.5821 192.746,57.5821 180.5,58C 175.36,56.8602 172.193,53.6935 171,48.5C 170.501,42.5092 170.334,36.5092 170.5,30.5 Z"/></g>
<g><path style="opacity:1" fill="#9ea9cc" d="M 257.5,30.5 C 283.833,30.5 310.167,30.5 336.5,30.5C 337.073,38.023 336.24,45.3563 334,52.5C 332.062,55.1059 329.562,56.9392 326.5,58C 312.124,57.6063 299.124,61.6063 287.5,70C 281.833,75 276.167,80 270.5,85C 268.194,87.139 265.527,88.639 262.5,89.5C 260.617,89.1243 259.117,88.1243 258,86.5C 257.5,67.8363 257.333,49.1696 257.5,30.5 Z"/></g>
<g><path style="opacity:1" fill="#9da9cc" d="M 342.5,30.5 C 350.833,30.5 359.167,30.5 367.5,30.5C 367.87,39.0731 366.704,47.4065 364,55.5C 363.25,56.1258 362.416,56.6258 361.5,57C 356.167,57.6667 350.833,57.6667 345.5,57C 343.714,56.2155 342.214,55.0488 341,53.5C 340.268,45.7433 340.768,38.0767 342.5,30.5 Z"/></g>
<g><path style="opacity:1" fill="#9eaacd" d="M 152.5,65.5 C 187.472,64.4136 216.972,76.4136 241,101.5C 243.723,104.557 246.056,107.89 248,111.5C 248.667,141.5 248.667,171.5 248,201.5C 232.247,229.128 209.08,238.628 178.5,230C 167.339,224.221 159.506,215.387 155,203.5C 144.926,173.183 140.76,142.016 142.5,110C 142.443,97.8039 142.943,85.6372 144,73.5C 146.098,69.8972 148.932,67.2305 152.5,65.5 Z"/></g>
<g><path style="opacity:1" fill="#9eaacd" d="M 337.5,65.5 C 343.176,65.3339 348.843,65.5006 354.5,66C 358.667,67.5 361.5,70.3333 363,74.5C 366.741,113.56 364.408,152.227 356,190.5C 352.923,204.56 346.09,216.393 335.5,226C 302.059,240.965 276.226,232.465 258,200.5C 257.333,171.167 257.333,141.833 258,112.5C 277.013,84.4019 303.513,68.7353 337.5,65.5 Z"/></g>
<g><path style="opacity:1" fill="#fd8464" d="M 126.5,161.5 C 128.144,161.286 129.644,161.62 131,162.5C 137.547,180.81 142.881,199.476 147,218.5C 147.667,222.167 147.667,225.833 147,229.5C 135.534,262.898 123.867,296.231 112,329.5C 110,332.167 108,332.167 106,329.5C 103.69,297.128 104.023,264.794 107,232.5C 109.934,207.757 116.434,184.09 126.5,161.5 Z"/></g>
<g><path style="opacity:1" fill="#fc8464" d="M 375.5,161.5 C 377.467,161.261 379.301,161.594 381,162.5C 393.196,192.288 400.196,223.288 402,255.5C 403.106,280.559 402.44,305.559 400,330.5C 398.333,331.833 396.667,331.833 395,330.5C 383.33,297.489 371.663,264.489 360,231.5C 359.333,226.5 359.333,221.5 360,216.5C 364.459,197.958 369.626,179.624 375.5,161.5 Z"/></g>
<g><path style="opacity:1" fill="#fc024f" d="M 235.5,232.5 C 239.099,231.938 241.099,233.438 241.5,237C 237.487,280.146 233.653,323.312 230,366.5C 228.776,369.473 226.776,370.14 224,368.5C 220.535,343.855 217.202,319.188 214,294.5C 211.805,281.191 208.972,268.025 205.5,255C 205.925,250.484 207.925,246.817 211.5,244C 219.956,240.937 227.956,237.104 235.5,232.5 Z"/></g>
<g><path style="opacity:1" fill="#fc024f" d="M 267.5,232.5 C 277.321,236.071 286.988,240.238 296.5,245C 299.48,247.478 300.813,250.645 300.5,254.5C 293.03,291.887 287.197,329.554 283,367.5C 281.084,370.033 279.084,370.033 277,367.5C 273.407,324.646 269.574,281.812 265.5,239C 265.338,236.498 266.005,234.331 267.5,232.5 Z"/></g>
<g><path style="opacity:1" fill="#fd014f" d="M 155.5,235.5 C 161.797,234.314 165.464,236.814 166.5,243C 160.441,296.662 157.275,350.495 157,404.5C 154.334,428.499 148.001,451.499 138,473.5C 134.333,477.5 130.667,477.5 127,473.5C 122.945,450.894 119.279,428.227 116,405.5C 114.254,391.876 113.588,378.209 114,364.5C 124.032,322.069 136.698,280.402 152,239.5C 153.376,238.295 154.542,236.962 155.5,235.5 Z"/></g>
<g><path style="opacity:1" fill="#fd014f" d="M 344.5,235.5 C 349.28,234.641 352.78,236.308 355,240.5C 369.552,279.821 381.885,319.821 392,360.5C 392.643,384.315 390.977,407.982 387,431.5C 384.345,445.097 382.012,458.763 380,472.5C 377.082,476.883 373.415,477.55 369,474.5C 359.875,454.002 353.542,432.669 350,410.5C 349.468,355.348 346.301,300.348 340.5,245.5C 339.767,241.177 341.1,237.844 344.5,235.5 Z"/></g>
<g><path style="opacity:1" fill="#fd014f" d="M 181.5,243.5 C 187.363,243.532 191.53,246.199 194,251.5C 203.347,301.771 212.181,352.104 220.5,402.5C 220.4,410.764 218.9,418.764 216,426.5C 208.296,445.406 200.462,464.239 192.5,483C 188.845,485.335 185.679,484.835 183,481.5C 169.306,405.616 165.973,329.283 173,252.5C 174.714,248.29 177.547,245.29 181.5,243.5 Z"/></g>
<g><path style="opacity:1" fill="#fd014f" d="M 320.5,243.5 C 326.077,243.371 330.244,245.704 333,250.5C 338.227,295.083 338.893,339.75 335,384.5C 332.832,417.01 329.165,449.343 324,481.5C 320.333,485.5 316.667,485.5 313,481.5C 304.384,460.602 296.05,439.602 288,418.5C 286.039,407.83 286.039,397.163 288,386.5C 296.157,340.385 304.823,294.385 314,248.5C 315.965,246.45 318.132,244.783 320.5,243.5 Z"/></g>
</svg>
