<?xml version="1.0" encoding="UTF-8"?>
<!DOCTYPE svg PUBLIC "-//W3C//DTD SVG 1.1//EN" "http://www.w3.org/Graphics/SVG/1.1/DTD/svg11.dtd">
<svg xmlns="http://www.w3.org/2000/svg" version="1.1" width="512px" height="512px" style="shape-rendering:geometricPrecision; text-rendering:geometricPrecision; image-rendering:optimizeQuality; fill-rule:evenodd; clip-rule:evenodd" xmlns:xlink="http://www.w3.org/1999/xlink">
<g><path style="opacity:0.986" fill="#494f69" d="M 241.5,4.5 C 261.838,3.5004 281.838,5.66707 301.5,11C 302.126,11.7504 302.626,12.5838 303,13.5C 305.226,28.7565 307.726,43.9232 310.5,59C 333.665,72.4148 356.665,86.0815 379.5,100C 399.73,107.023 417.23,118.19 432,133.5C 440.909,144.656 446.575,157.323 449,171.5C 450.74,181.936 451.907,192.436 452.5,203C 451.532,213.857 450.699,224.69 450,235.5C 470.928,258.71 482.595,286.043 485,317.5C 485.667,331.5 485.667,345.5 485,359.5C 467.195,376.304 449.695,393.471 432.5,411C 428.791,413.421 425.625,412.921 423,409.5C 411.062,388.415 405.395,365.749 406,341.5C 400.382,333.547 394.382,325.88 388,318.5C 382,327.833 376,337.167 370,346.5C 368.279,351.878 367.112,357.378 366.5,363C 369.279,380.84 372.112,398.673 375,416.5C 375.676,433.851 375.342,451.184 374,468.5C 337.367,491.211 297.534,504.211 254.5,507.5C 212.087,504.196 172.92,491.196 137,468.5C 135.839,451.511 135.506,434.511 136,417.5C 138.942,399.516 141.775,381.516 144.5,363.5C 143.977,357.697 142.811,352.03 141,346.5C 135.499,336.827 129.499,327.494 123,318.5C 116.591,326.32 110.425,334.32 104.5,342.5C 105.482,367.404 99.4817,390.571 86.5,412C 84.5,412.667 82.5,412.667 80.5,412C 62,394.833 43.5,377.667 25,360.5C 24.3333,342.167 24.3333,323.833 25,305.5C 27.8462,277.141 39.6795,253.474 60.5,234.5C 56.8015,209.53 58.3015,184.863 65,160.5C 71.1944,140.95 83.0277,125.783 100.5,115C 111.102,108.866 122.102,103.532 133.5,99C 155.668,85.415 178.001,72.0816 200.5,59C 203.332,43.1781 206.165,27.3448 209,11.5C 219.887,8.95732 230.721,6.62399 241.5,4.5 Z"/></g>
<g><path style="opacity:1" fill="#9eaacd" d="M 242.5,20.5 C 245.652,19.9586 248.152,20.9586 250,23.5C 250.667,39.5 250.667,55.5 250,71.5C 247.99,84.1792 241.823,94.3458 231.5,102C 240.479,108.458 246.646,116.958 250,127.5C 250.667,186.5 250.667,245.5 250,304.5C 249.275,305.059 248.442,305.392 247.5,305.5C 245.256,304.41 243.422,302.744 242,300.5C 225,275.5 208,250.5 191,225.5C 190.042,222.925 189.542,220.259 189.5,217.5C 193.399,189.67 188.899,163.337 176,138.5C 168.564,126.731 158.398,118.231 145.5,113C 142.575,109.304 142.908,105.971 146.5,103C 166.009,92.4118 185.675,82.0785 205.5,72C 218.052,54.9546 230.385,37.7879 242.5,20.5 Z"/></g>
<g><path style="opacity:1" fill="#9eaacc" d="M 261.5,20.5 C 265.273,19.8224 268.106,21.1558 270,24.5C 280.973,40.3058 292.139,55.9724 303.5,71.5C 323.167,82 342.833,92.5 362.5,103C 366.01,106.048 366.343,109.381 363.5,113C 343.957,121.544 331.123,136.044 325,156.5C 323.119,163.787 321.452,171.12 320,178.5C 319.667,193.833 319.333,209.167 319,224.5C 301.333,250.5 283.667,276.5 266,302.5C 264.214,305.362 261.881,306.028 259,304.5C 258.333,246.167 258.333,187.833 259,129.5C 260.027,124.079 262.027,119.079 265,114.5C 269.188,110.312 273.355,106.145 277.5,102C 267.626,94.0855 261.459,83.9188 259,71.5C 258.333,55.8333 258.333,40.1667 259,24.5C 259.662,23.0161 260.496,21.6828 261.5,20.5 Z"/></g>
<g><path style="opacity:1" fill="#9eaacd" d="M 116.5,112.5 C 138.687,111.674 155.52,120.674 167,139.5C 168.042,142.804 166.875,144.971 163.5,146C 149.499,149.336 136.832,155.336 125.5,164C 122.048,167.734 119.215,171.9 117,176.5C 115.548,183.349 113.548,190.015 111,196.5C 99.8333,206.333 88.6667,216.167 77.5,226C 71.4664,227.225 68.2997,224.725 68,218.5C 57.5061,170.512 73.6728,135.178 116.5,112.5 Z"/></g>
<g><path style="opacity:1" fill="#9eaacd" d="M 376.5,112.5 C 381.511,112.334 386.511,112.501 391.5,113C 431.731,131.611 448.898,163.111 443,207.5C 442.129,212.857 441.129,218.191 440,223.5C 437.225,226.654 434.058,227.154 430.5,225C 420.614,215.813 410.447,206.979 400,198.5C 396.45,192.706 394.45,186.373 394,179.5C 388.373,166.541 378.873,157.708 365.5,153C 357.249,150.807 349.416,147.64 342,143.5C 343.253,136.523 346.753,130.69 352.5,126C 360.109,120.698 368.109,116.198 376.5,112.5 Z"/></g>
<g><path style="opacity:1" fill="#fc024f" d="M 167.5,151.5 C 173.231,151.721 176.731,154.721 178,160.5C 181.303,179.359 182.303,198.359 181,217.5C 179.895,220.937 177.728,223.437 174.5,225C 159.027,229.935 143.694,235.269 128.5,241C 124.507,241.753 121.674,240.253 120,236.5C 119.333,221.833 119.333,207.167 120,192.5C 122.047,181.236 127.547,172.069 136.5,165C 146.659,159.916 156.992,155.416 167.5,151.5 Z"/></g>
<g><path style="opacity:1" fill="#fd014f" d="M 337.5,151.5 C 349.126,154.766 360.46,158.932 371.5,164C 380.73,170.951 386.564,180.118 389,191.5C 389.667,206.833 389.667,222.167 389,237.5C 387.093,241.01 384.26,242.176 380.5,241C 365.908,235.803 351.241,230.803 336.5,226C 330.154,223.352 327.321,218.519 328,211.5C 326.48,193.602 327.813,175.935 332,158.5C 332.967,155.379 334.8,153.046 337.5,151.5 Z"/></g>
<g><path style="opacity:1" fill="#9da9cc" d="M 110.5,210.5 C 111.822,210.33 112.989,210.663 114,211.5C 112.658,233.91 113.491,256.243 116.5,278.5C 115.441,288.845 112.274,298.512 107,307.5C 98.6458,320.857 88.4792,332.69 76.5,343C 70.086,345.593 67.586,343.426 69,336.5C 77.7171,317.828 81.7171,298.161 81,277.5C 84.3316,252.182 94.1649,229.848 110.5,210.5 Z"/></g>
<g><path style="opacity:1" fill="#9da9cc" d="M 395.5,210.5 C 398.263,210.744 400.429,212.077 402,214.5C 414.628,230.427 422.961,248.427 427,268.5C 426.731,293.393 431.565,317.227 441.5,340C 439.299,345.242 435.965,345.908 431.5,342C 414.336,327.491 401.836,309.658 394,288.5C 395.211,262.445 395.711,236.445 395.5,210.5 Z"/></g>
<g><path style="opacity:1" fill="#9da9cc" d="M 81.5,228.5 C 83.1992,228.34 84.8659,228.506 86.5,229C 87.0585,229.725 87.3918,230.558 87.5,231.5C 83.7252,240.719 80.2252,250.052 77,259.5C 74.6649,269.862 72.3315,280.195 70,290.5C 67.1672,296.17 63.8339,301.503 60,306.5C 57.3348,319.669 51.1681,330.836 41.5,340C 37.8339,341.271 35.3339,340.104 34,336.5C 29.4651,291.261 45.2984,255.261 81.5,228.5 Z"/></g>
<g><path style="opacity:1" fill="#9da9cc" d="M 422.5,228.5 C 424.989,228.298 427.323,228.798 429.5,230C 464.817,257.152 479.984,292.985 475,337.5C 473.136,340.207 470.636,341.041 467.5,340C 464.882,337.261 462.382,334.427 460,331.5C 454.918,322.183 450.585,312.516 447,302.5C 444.277,299.443 441.944,296.11 440,292.5C 437.082,281.247 434.415,269.914 432,258.5C 429.254,249.928 425.921,241.594 422,233.5C 421.36,231.735 421.527,230.068 422.5,228.5 Z"/></g>
<g><path style="opacity:1" fill="#fd004f" d="M 175.5,231.5 C 181.439,231.053 185.939,233.386 189,238.5C 204.754,261.675 220.754,284.675 237,307.5C 237.837,311.295 237.504,314.961 236,318.5C 214.62,341.71 193.454,365.043 172.5,388.5C 169.863,378.528 166.029,368.862 161,359.5C 150.054,343.281 140.388,326.281 132,308.5C 125.406,290.413 122.406,271.747 123,252.5C 124.122,250.376 125.622,248.543 127.5,247C 143.881,242.705 159.881,237.539 175.5,231.5 Z"/></g>
<g><path style="opacity:1" fill="#fe004f" d="M 327.5,231.5 C 329.527,231.338 331.527,231.505 333.5,232C 348.466,237.878 363.799,242.544 379.5,246C 385.56,248.562 387.893,253.062 386.5,259.5C 386.26,283.796 380.093,306.463 368,327.5C 358.575,342.01 349.909,357.01 342,372.5C 340.794,377.531 339.46,382.531 338,387.5C 337.586,387.957 337.086,388.291 336.5,388.5C 315.109,365.397 293.942,342.064 273,318.5C 271.101,314.803 271.101,311.136 273,307.5C 289,284.167 305,260.833 321,237.5C 323.063,235.266 325.229,233.266 327.5,231.5 Z"/></g>
<g><path style="opacity:1" fill="#9eaacd" d="M 242.5,321.5 C 245.365,321.055 247.865,321.722 250,323.5C 250.667,378.167 250.667,432.833 250,487.5C 247.847,489.444 245.347,489.944 242.5,489C 232.965,479.461 222.298,471.461 210.5,465C 202.188,461.614 193.521,459.947 184.5,460C 179.664,458.181 176.831,454.681 176,449.5C 175.189,433.154 174.522,416.82 174,400.5C 174.914,398.336 176.081,396.336 177.5,394.5C 199.531,370.47 221.198,346.137 242.5,321.5 Z"/></g>
<g><path style="opacity:1" fill="#9ea9cc" d="M 260.5,321.5 C 262.527,321.338 264.527,321.505 266.5,322C 289.705,347.536 312.538,373.37 335,399.5C 335.11,416.851 334.443,434.185 333,451.5C 331.5,455.667 328.667,458.5 324.5,460C 313.042,459.531 302.376,462.198 292.5,468C 282.989,475.514 273.489,483.014 264,490.5C 261.541,490.11 259.874,488.776 259,486.5C 258.333,432.5 258.333,378.5 259,324.5C 259.513,323.473 260.013,322.473 260.5,321.5 Z"/></g>
<g><path style="opacity:1" fill="#9da8cb" d="M 154.5,365.5 C 161.852,393.433 166.852,421.933 169.5,451C 170.27,454.827 168.937,457.494 165.5,459C 160.5,459.667 155.5,459.667 150.5,459C 149.299,458.097 148.465,456.931 148,455.5C 145.746,441.575 145.08,427.575 146,413.5C 149.16,397.541 151.993,381.541 154.5,365.5 Z"/></g>
<g><path style="opacity:1" fill="#9ca8cb" d="M 353.5,367.5 C 355.045,368.23 355.878,369.563 356,371.5C 357.903,384.919 360.236,398.253 363,411.5C 365.531,427.082 364.531,442.415 360,457.5C 359.5,458 359,458.5 358.5,459C 353.5,459.667 348.5,459.667 343.5,459C 340.852,457.367 339.519,455.033 339.5,452C 342.542,423.533 347.209,395.366 353.5,367.5 Z"/></g>
</svg>
