<?xml version="1.0" encoding="UTF-8"?>
<!DOCTYPE svg PUBLIC "-//W3C//DTD SVG 1.1//EN" "http://www.w3.org/Graphics/SVG/1.1/DTD/svg11.dtd">
<svg xmlns="http://www.w3.org/2000/svg" version="1.1" width="512px" height="512px" style="shape-rendering:geometricPrecision; text-rendering:geometricPrecision; image-rendering:optimizeQuality; fill-rule:evenodd; clip-rule:evenodd" xmlns:xlink="http://www.w3.org/1999/xlink">
<g><path style="opacity:0.991" fill="#484f69" d="M 206.5,36.5 C 209.607,36.3512 212.607,36.8512 215.5,38C 222.665,41.7209 229.998,45.0542 237.5,48C 248.825,51.2951 260.158,51.2951 271.5,48C 279.951,44.6082 288.284,40.9415 296.5,37C 301.625,35.4315 305.459,36.9315 308,41.5C 308.168,50.1858 308.668,58.8525 309.5,67.5C 346.106,85.6374 382.773,103.471 419.5,121C 446.458,137.994 460.958,162.494 463,194.5C 463.667,205.5 463.667,216.5 463,227.5C 461.898,235.543 460.898,243.543 460,251.5C 483.355,273.058 495.522,299.891 496.5,332C 496.333,334.833 496.167,337.667 496,340.5C 477.96,373.414 459.794,406.247 441.5,439C 437.833,441 434.167,441 430.5,439C 415.64,415.741 408.473,390.241 409,362.5C 404.333,356.5 399.667,350.5 395,344.5C 390.667,350.167 386.333,355.833 382,361.5C 376.666,370.835 374.666,380.835 376,391.5C 379.98,411.37 382.646,431.37 384,451.5C 382.786,453.049 381.286,454.215 379.5,455C 349.552,461.256 319.552,467.256 289.5,473C 265.833,476.333 242.167,476.333 218.5,473C 187.955,467.325 157.622,460.825 127.5,453.5C 125.826,451.651 124.826,449.484 124.5,447C 127.996,426.192 131.329,405.359 134.5,384.5C 133.854,375.912 131.354,367.912 127,360.5C 123,355.167 119,349.833 115,344.5C 110.333,350.5 105.667,356.5 101,362.5C 101.107,387.738 95.1071,411.405 83,433.5C 79.7441,435.429 76.2441,435.929 72.5,435C 69.6386,432.106 67.1386,428.939 65,425.5C 48.918,398.334 32.5846,371.334 16,344.5C 13.9711,341.448 12.8044,338.114 12.5,334.5C 13.43,300.988 26.0967,272.988 50.5,250.5C 43.2878,221.605 44.1211,192.938 53,164.5C 61.1935,144.638 74.6935,129.472 93.5,119C 129.136,101.849 164.802,84.6827 200.5,67.5C 201.332,58.5184 201.832,49.5184 202,40.5C 203.397,38.9297 204.897,37.5964 206.5,36.5 Z"/></g>
<g><path style="opacity:1" fill="#9da9cc" d="M 216.5,59.5 C 217.552,59.3505 218.552,59.5172 219.5,60C 226.775,68.047 232.942,76.8803 238,86.5C 242.798,101.896 247.798,117.229 253,132.5C 254.329,138.834 251.829,141.668 245.5,141C 228.169,119.502 218.169,95.0023 215.5,67.5C 215.551,64.7471 215.884,62.0805 216.5,59.5 Z"/></g>
<g><path style="opacity:1" fill="#9ca8cb" d="M 289.5,59.5 C 291.144,59.2865 292.644,59.6198 294,60.5C 294.365,80.3715 289.699,99.0381 280,116.5C 275.25,125.236 269.75,133.402 263.5,141C 261.08,141.687 258.913,141.187 257,139.5C 256.333,136.833 256.333,134.167 257,131.5C 262.344,113.134 268.677,95.1337 276,77.5C 280.752,71.6491 285.252,65.6491 289.5,59.5 Z"/></g>
<g><path style="opacity:1" fill="#9da9cc" d="M 196.5,83.5 C 203.079,82.038 207.579,84.3713 210,90.5C 212.857,101.408 216.69,111.908 221.5,122C 221.205,124.923 219.871,127.257 217.5,129C 213.833,129.667 210.167,129.667 206.5,129C 185.462,125.524 164.629,121.357 144,116.5C 143.056,113.653 143.556,111.153 145.5,109C 162.84,100.997 179.84,92.4969 196.5,83.5 Z"/></g>
<g><path style="opacity:1" fill="#9eaacd" d="M 304.5,83.5 C 308.273,83.2633 311.94,83.7633 315.5,85C 332.167,93.3333 348.833,101.667 365.5,110C 367.562,114.337 366.229,117.004 361.5,118C 339.667,121.833 317.834,125.666 296,129.5C 289.752,129.024 287.419,125.69 289,119.5C 293.654,109.873 297.32,99.8729 300,89.5C 301.332,87.34 302.832,85.34 304.5,83.5 Z"/></g>
<g><path style="opacity:1" fill="#9eaacd" d="M 113.5,123.5 C 132.889,121.862 151.223,125.362 168.5,134C 154.184,136.967 142.35,144.133 133,155.5C 122.194,168.443 114.527,183.109 110,199.5C 103.834,210.322 96.3341,220.156 87.5,229C 80.606,235.731 73.2726,241.897 65.5,247.5C 63.1896,240.378 61.6896,233.044 61,225.5C 60.1206,210.131 60.454,194.797 62,179.5C 66.5222,156.272 79.3555,139.438 100.5,129C 104.923,127.115 109.256,125.281 113.5,123.5 Z"/></g>
<g><path style="opacity:1" fill="#9eaacd" d="M 370.5,123.5 C 399.718,120.863 422.552,131.53 439,155.5C 445.137,166.716 448.471,178.716 449,191.5C 450.152,210.675 448.819,229.675 445,248.5C 426.869,235.371 411.869,219.371 400,200.5C 393.19,175.336 379.356,155.17 358.5,140C 352.878,136.793 346.878,134.793 340.5,134C 350.264,129.58 360.264,126.08 370.5,123.5 Z"/></g>
<g><path style="opacity:1" fill="#fe004f" d="M 178.5,135.5 C 190.021,134.323 201.021,136.156 211.5,141C 224.527,145.925 236.361,152.758 247,161.5C 248.642,181.077 248.975,200.744 248,220.5C 246.664,226.501 243.164,230.668 237.5,233C 214.383,239.873 191.383,247.04 168.5,254.5C 161.705,253.848 155.705,251.348 150.5,247C 143.643,237.473 134.977,230.139 124.5,225C 119.817,223.665 115.15,222.331 110.5,221C 109.57,219.806 108.903,218.473 108.5,217C 111.985,211.51 115.485,206.01 119,200.5C 128.291,169.048 148.124,147.381 178.5,135.5 Z"/></g>
<g><path style="opacity:1" fill="#fd004f" d="M 312.5,135.5 C 325.546,133.928 337.546,136.762 348.5,144C 360.293,152.125 370.459,161.959 379,173.5C 383.641,188.449 390.641,202.116 400,214.5C 400.896,217.025 400.396,219.192 398.5,221C 390.195,222.434 382.528,225.434 375.5,230C 368.728,235.86 362.395,242.194 356.5,249C 350.654,252.73 344.32,254.397 337.5,254C 315.662,246.387 293.662,239.387 271.5,233C 266.123,229.957 262.623,225.457 261,219.5C 260.333,201.5 260.333,183.5 261,165.5C 262,163.5 263,161.5 264,159.5C 278.958,148.938 295.124,140.938 312.5,135.5 Z"/></g>
<g><path style="opacity:1" fill="#9eaacd" d="M 96.5,231.5 C 101.673,231.668 105.506,234.002 108,238.5C 108.667,251.167 108.667,263.833 108,276.5C 102.479,300.402 93.8119,323.068 82,344.5C 76.2623,354.905 68.429,363.405 58.5,370C 54.1019,371.378 50.6019,370.212 48,366.5C 45.9568,351.857 44.1235,337.191 42.5,322.5C 42.5039,318.431 43.0039,314.431 44,310.5C 50.9414,291.675 58.2747,273.009 66,254.5C 76.9175,247.738 87.0842,240.072 96.5,231.5 Z"/></g>
<g><path style="opacity:1" fill="#9eaacd" d="M 408.5,231.5 C 409.873,231.343 411.207,231.51 412.5,232C 422.693,239.693 433.027,247.193 443.5,254.5C 450.431,271.46 457.265,288.46 464,305.5C 465.913,310.826 466.746,316.326 466.5,322C 465.71,336.575 464.21,351.075 462,365.5C 459.459,370.069 455.625,371.569 450.5,370C 438.403,360.238 428.903,348.404 422,334.5C 412.403,314.71 405.403,294.043 401,272.5C 400.333,261.5 400.333,250.5 401,239.5C 403.028,236.308 405.528,233.641 408.5,231.5 Z"/></g>
<g><path style="opacity:1" fill="#9eaacd" d="M 240.5,243.5 C 243.961,243.146 246.461,244.479 248,247.5C 248.964,261.594 248.631,275.594 247,289.5C 238.194,292.986 229.027,295.486 219.5,297C 210.196,300.765 200.863,304.099 191.5,307C 179.119,296.1 173.619,282.6 175,266.5C 175.903,265.299 177.069,264.465 178.5,264C 199.495,257.835 220.161,251.001 240.5,243.5 Z"/></g>
<g><path style="opacity:1" fill="#9eaacd" d="M 264.5,243.5 C 287.105,250.757 309.772,257.923 332.5,265C 335.018,266.87 336.352,269.37 336.5,272.5C 334.248,287.025 327.415,298.692 316,307.5C 300.18,300.115 283.68,294.949 266.5,292C 264.671,291.727 263.171,290.893 262,289.5C 260.369,275.594 260.036,261.594 261,247.5C 261.69,245.65 262.856,244.316 264.5,243.5 Z"/></g>
<g><path style="opacity:1" fill="#9da9cc" d="M 46.5,276.5 C 48.3464,276.222 49.6798,276.889 50.5,278.5C 43.7778,289.283 39.2778,300.95 37,313.5C 36.5001,328.496 36.3334,343.496 36.5,358.5C 35.0222,358.762 33.6888,358.429 32.5,357.5C 24.9482,346.225 22.4482,333.892 25,320.5C 27.1276,303.247 34.2943,288.58 46.5,276.5 Z"/></g>
<g><path style="opacity:1" fill="#9ba7c9" d="M 459.5,276.5 C 461.783,276.608 463.783,277.441 465.5,279C 480.605,296.654 487.105,317.154 485,340.5C 483.136,346.56 480.47,352.226 477,357.5C 475.644,358.38 474.144,358.714 472.5,358.5C 472.667,342.83 472.5,327.163 472,311.5C 471.046,306.396 469.713,301.396 468,296.5C 464.872,289.917 462.039,283.25 459.5,276.5 Z"/></g>
<g><path style="opacity:1" fill="#9ba7c9" d="M 108.5,296.5 C 109.814,298.915 110.481,301.748 110.5,305C 108.969,321.894 101.969,336.061 89.5,347.5C 88.3861,346.277 88.2195,344.944 89,343.5C 96.6197,328.265 103.12,312.599 108.5,296.5 Z"/></g>
<g><path style="opacity:1" fill="#9aa6c8" d="M 398.5,296.5 C 400.124,296.36 401.29,297.027 402,298.5C 407.229,314.29 413.562,329.624 421,344.5C 421.749,345.635 421.583,346.635 420.5,347.5C 405.227,333.951 397.894,316.951 398.5,296.5 Z"/></g>
<g><path style="opacity:1" fill="#9eaacd" d="M 236.5,301.5 C 240.584,301.043 244.417,301.71 248,303.5C 248.667,318.5 248.667,333.5 248,348.5C 247.25,349.126 246.416,349.626 245.5,350C 238.833,350.167 232.167,350.333 225.5,350.5C 205.067,355.215 194.9,347.215 195,326.5C 195.667,325.167 196.333,323.833 197,322.5C 208.462,312.187 221.628,305.187 236.5,301.5 Z"/></g>
<g><path style="opacity:1" fill="#9da9cc" d="M 263.5,301.5 C 281.438,302.644 297.271,308.978 311,320.5C 314.324,325.324 315.324,330.657 314,336.5C 312.265,342.516 308.765,347.016 303.5,350C 290.167,350.667 276.833,350.667 263.5,350C 262.667,349.167 261.833,348.333 261,347.5C 260.333,333.167 260.333,318.833 261,304.5C 262.045,303.627 262.878,302.627 263.5,301.5 Z"/></g>
<g><path style="opacity:1" fill="#9da9cc" d="M 153.5,329.5 C 154.552,329.351 155.552,329.517 156.5,330C 162,336.167 167.5,342.333 173,348.5C 177.054,353.942 180.054,359.942 182,366.5C 182.5,377.495 182.667,388.495 182.5,399.5C 181.127,399.657 179.793,399.49 178.5,399C 172.031,393.532 165.864,387.699 160,381.5C 156.501,376.34 154.167,370.674 153,364.5C 152.189,352.757 152.356,341.091 153.5,329.5 Z"/></g>
<g><path style="opacity:1" fill="#9da9cb" d="M 353.5,329.5 C 354.5,329.5 355.5,329.5 356.5,329.5C 356.667,342.504 356.5,355.504 356,368.5C 350.569,381.931 341.569,392.265 329,399.5C 328.228,399.355 327.561,399.022 327,398.5C 326.333,388.833 326.333,379.167 327,369.5C 328.307,362.574 330.974,356.24 335,350.5C 341.375,343.629 347.542,336.629 353.5,329.5 Z"/></g>
<g><path style="opacity:1" fill="#9eaacd" d="M 215.5,359.5 C 225.172,359.334 234.839,359.5 244.5,360C 246,360.833 247.167,362 248,363.5C 248.667,383.5 248.667,403.5 248,423.5C 247.5,425.333 246.333,426.5 244.5,427C 234.5,427.667 224.5,427.667 214.5,427C 211.417,426.214 209.251,424.381 208,421.5C 206.374,403.566 206.041,385.566 207,367.5C 209.098,363.897 211.932,361.23 215.5,359.5 Z"/></g>
<g><path style="opacity:1" fill="#9da9cb" d="M 265.5,359.5 C 275.172,359.334 284.839,359.5 294.5,360C 298.667,361.5 301.5,364.333 303,368.5C 303.667,385.167 303.667,401.833 303,418.5C 301.939,421.562 300.106,424.062 297.5,426C 286.573,427.597 275.573,427.931 264.5,427C 262.951,425.786 261.785,424.286 261,422.5C 260.333,403.167 260.333,383.833 261,364.5C 262.025,362.313 263.525,360.646 265.5,359.5 Z"/></g>
<g><path style="opacity:1" fill="#9da9cc" d="M 154.5,391.5 C 155.873,391.343 157.207,391.51 158.5,392C 165.302,397.801 171.802,403.968 178,410.5C 179.333,413.167 180.667,415.833 182,418.5C 182.667,426.833 182.667,435.167 182,443.5C 180.867,445.211 179.367,445.711 177.5,445C 168.884,437.39 161.384,428.89 155,419.5C 152.541,411.02 151.875,402.353 153,393.5C 153.717,392.956 154.217,392.289 154.5,391.5 Z"/></g>
<g><path style="opacity:1" fill="#9ca8cb" d="M 351.5,391.5 C 353.144,391.286 354.644,391.62 356,392.5C 356.667,400.167 356.667,407.833 356,415.5C 354.861,419.112 353.194,422.446 351,425.5C 345.199,432.302 339.032,438.802 332.5,445C 330.299,445.825 328.466,445.325 327,443.5C 326.09,434.756 326.424,426.089 328,417.5C 329.497,413.835 331.497,410.502 334,407.5C 340.029,402.301 345.862,396.967 351.5,391.5 Z"/></g>
</svg>
