<?xml version="1.0" encoding="UTF-8"?>
<!DOCTYPE svg PUBLIC "-//W3C//DTD SVG 1.1//EN" "http://www.w3.org/Graphics/SVG/1.1/DTD/svg11.dtd">
<svg xmlns="http://www.w3.org/2000/svg" version="1.1" width="512px" height="512px" style="shape-rendering:geometricPrecision; text-rendering:geometricPrecision; image-rendering:optimizeQuality; fill-rule:evenodd; clip-rule:evenodd" xmlns:xlink="http://www.w3.org/1999/xlink">
<g><path style="opacity:0.991" fill="#494f69" d="M 131.5,8.5 C 213.834,8.33334 296.167,8.5 378.5,9C 380.081,9.70653 381.581,10.5399 383,11.5C 384.147,23.4078 384.647,35.4078 384.5,47.5C 383.981,70.5021 383.814,93.5021 384,116.5C 414.628,179.647 427.295,246.313 422,316.5C 421.088,331.537 419.754,346.537 418,361.5C 412.064,407.49 404.231,452.99 394.5,498C 364.744,499.204 334.911,500.037 305,500.5C 301.43,500.456 297.93,499.956 294.5,499C 284.098,482.357 276.265,464.524 271,445.5C 263.876,420.547 258.543,395.213 255,369.5C 249.784,410.036 239.117,449.036 223,486.5C 220.785,491.1 217.952,495.266 214.5,499C 211.425,500.007 208.258,500.507 205,500.5C 175.509,499.72 146.009,499.22 116.5,499C 115.333,497.833 114.167,496.667 113,495.5C 104.693,449.323 97.3595,402.99 91,356.5C 80.0525,284.642 87.0525,214.642 112,146.5C 116.085,135.915 120.752,125.582 126,115.5C 125.493,81.8518 125.16,48.1852 125,14.5C 126.436,11.5581 128.603,9.55813 131.5,8.5 Z"/></g>
<g><path style="opacity:1" fill="#9eaacd" d="M 215.5,17.5 C 225.839,17.3335 236.172,17.5002 246.5,18C 247,18.5 247.5,19 248,19.5C 248.667,66.1667 248.667,112.833 248,159.5C 245.847,161.444 243.347,161.944 240.5,161C 215.099,119.004 204.599,73.5036 209,24.5C 210.694,21.6424 212.861,19.309 215.5,17.5 Z"/></g>
<g><path style="opacity:1" fill="#9da9cc" d="M 263.5,17.5 C 274.245,17.0712 284.912,17.5712 295.5,19C 297.917,20.6626 299.75,22.8293 301,25.5C 304.887,73.4941 294.554,118.161 270,159.5C 266.706,162.311 263.706,161.978 261,158.5C 260.333,112.5 260.333,66.5 261,20.5C 262.045,19.6266 262.878,18.6266 263.5,17.5 Z"/></g>
<g><path style="opacity:1" fill="#9da9cc" d="M 152.5,19.5 C 155.518,19.3354 158.518,19.502 161.5,20C 186.979,43.4939 198.146,72.6605 195,107.5C 193.534,109.325 191.701,109.825 189.5,109C 177.627,96.1293 166.127,82.9627 155,69.5C 145.873,56.0749 143.206,41.4082 147,25.5C 148.36,22.9774 150.193,20.9774 152.5,19.5 Z"/></g>
<g><path style="opacity:1" fill="#9da9cc" d="M 347.5,19.5 C 354.515,17.9265 359.681,20.2598 363,26.5C 366.125,42.5604 363.125,57.2271 354,70.5C 342.479,83.0528 331.313,95.8861 320.5,109C 317.648,109.913 315.481,109.08 314,106.5C 311.909,72.2566 323.075,43.2566 347.5,19.5 Z"/></g>
<g><path style="opacity:1" fill="#9ca8cb" d="M 363.5,69.5 C 364.5,69.5 365.5,69.5 366.5,69.5C 366.106,81.8863 366.606,94.2196 368,106.5C 377.667,132.833 387.333,159.167 397,185.5C 399.86,194.987 400.86,204.653 400,214.5C 397.81,217.249 396.143,216.915 395,213.5C 380.991,174.815 365.324,136.815 348,99.5C 347.195,95.091 348.195,91.091 351,87.5C 355.423,81.6454 359.59,75.6454 363.5,69.5 Z"/></g>
<g><path style="opacity:1" fill="#9da9cb" d="M 146.5,69.5 C 148.371,69.8588 149.871,70.8588 151,72.5C 155.333,79.1667 159.667,85.8333 164,92.5C 164.667,94.8333 164.667,97.1667 164,99.5C 146.957,137.255 131.291,175.588 117,214.5C 116.047,216.592 114.714,216.925 113,215.5C 112.169,207.112 112.503,198.779 114,190.5C 123.428,162.974 133.428,135.64 144,108.5C 145.085,95.4714 145.919,82.4714 146.5,69.5 Z"/></g>
<g><path style="opacity:1" fill="#fd8464" d="M 161.5,133.5 C 166.814,132.74 170.647,134.74 173,139.5C 178.892,166.514 184.892,193.514 191,220.5C 198.631,270.561 195.298,319.895 181,368.5C 176.018,385.248 165.851,389.748 150.5,382C 147.836,379.331 146.002,376.164 145,372.5C 140.602,356.306 135.602,340.306 130,324.5C 123.127,286.94 124.127,249.606 133,212.5C 139.798,188.106 147.798,164.106 157,140.5C 158.012,137.798 159.512,135.465 161.5,133.5 Z"/></g>
<g><path style="opacity:1" fill="#fd8464" d="M 342.5,133.5 C 346.192,132.971 349.358,133.971 352,136.5C 367.982,173.764 378.982,212.431 385,252.5C 386.353,274.625 385.353,296.625 382,318.5C 376.131,337.107 370.464,355.773 365,374.5C 357.245,387.967 347.245,389.967 335,380.5C 331.09,372.876 328.09,364.876 326,356.5C 314.763,310.894 312.763,264.894 320,218.5C 325.786,191.787 331.786,165.12 338,138.5C 339.059,136.341 340.559,134.674 342.5,133.5 Z"/></g>
<g><path style="opacity:1" fill="#9eaacd" d="M 198.5,159.5 C 201.325,159.081 203.491,160.081 205,162.5C 214.754,177.008 224.754,191.341 235,205.5C 236.608,208.382 237.941,211.382 239,214.5C 237.522,253.864 235.188,293.198 232,332.5C 231.586,332.957 231.086,333.291 230.5,333.5C 222.385,309.32 214.552,284.986 207,260.5C 202.863,226.831 200.029,193.165 198.5,159.5 Z"/></g>
<g><path style="opacity:1" fill="#9eaacc" d="M 307.5,159.5 C 310.585,159.418 312.252,160.918 312.5,164C 309.028,195.799 305.862,227.633 303,259.5C 294.986,284.041 287.486,308.707 280.5,333.5C 279.5,333.5 278.5,333.5 277.5,333.5C 274.714,294.499 272.214,255.499 270,216.5C 270.942,213.007 272.275,209.674 274,206.5C 284.998,190.676 296.164,175.009 307.5,159.5 Z"/></g>
<g><path style="opacity:1" fill="#fb8464" d="M 112.5,225.5 C 113.833,225.5 115.167,225.5 116.5,225.5C 115.456,249.157 115.289,272.823 116,296.5C 116.602,320.653 121.269,343.986 130,366.5C 135.732,380.366 141.066,394.366 146,408.5C 146.562,417.576 145.895,426.576 144,435.5C 140.339,439.976 136.006,440.643 131,437.5C 116.791,414.878 108.125,390.212 105,363.5C 101.467,326.801 101.801,290.135 106,253.5C 107.467,243.948 109.634,234.615 112.5,225.5 Z"/></g>
<g><path style="opacity:1" fill="#fc8464" d="M 399.5,226.5 C 401.911,226.137 403.411,227.137 404,229.5C 409.21,257.254 410.876,285.254 409,313.5C 409.033,347.304 403.033,379.971 391,411.5C 387.094,420.318 382.427,428.652 377,436.5C 372.333,441.833 367.667,441.833 363,436.5C 361.635,426.866 361.302,417.199 362,407.5C 370.585,388.744 378.585,369.744 386,350.5C 392.145,331.298 395.812,311.631 397,291.5C 397.976,269.777 398.81,248.11 399.5,226.5 Z"/></g>
<g><path style="opacity:1" fill="#fc024f" d="M 203.5,293.5 C 204.822,293.33 205.989,293.663 207,294.5C 223.861,339.258 228.194,385.258 220,432.5C 220.921,444.816 216.754,454.983 207.5,463C 187.358,472.623 173.192,467.123 165,446.5C 164.252,423.741 171.252,403.741 186,386.5C 192.993,371.528 197.66,355.861 200,339.5C 201.335,324.122 202.502,308.789 203.5,293.5 Z"/></g>
<g><path style="opacity:1" fill="#fd014f" d="M 302.5,293.5 C 303.822,293.33 304.989,293.663 306,294.5C 306.282,319.28 309.615,343.613 316,367.5C 317.779,373.723 320.112,379.723 323,385.5C 334.026,398.555 341.026,413.555 344,430.5C 347.487,443.671 343.987,454.505 333.5,463C 313.344,472.618 299.177,467.118 291,446.5C 287.06,418.286 285.727,389.952 287,361.5C 289.021,338.084 294.188,315.417 302.5,293.5 Z"/></g>
</svg>
