<?xml version="1.0" encoding="UTF-8"?>
<!DOCTYPE svg PUBLIC "-//W3C//DTD SVG 1.1//EN" "http://www.w3.org/Graphics/SVG/1.1/DTD/svg11.dtd">
<svg xmlns="http://www.w3.org/2000/svg" version="1.1" width="512px" height="512px" style="shape-rendering:geometricPrecision; text-rendering:geometricPrecision; image-rendering:optimizeQuality; fill-rule:evenodd; clip-rule:evenodd" xmlns:xlink="http://www.w3.org/1999/xlink">
<g><path style="opacity:0.991" fill="#484f69" d="M 205.5,36.5 C 207.857,36.3367 210.19,36.5034 212.5,37C 221.601,41.5509 230.935,45.5509 240.5,49C 250.58,51.1618 260.58,50.8284 270.5,48C 279.167,44.3333 287.833,40.6667 296.5,37C 302.347,35.6719 306.18,37.8386 308,43.5C 308.168,51.5207 308.668,59.5207 309.5,67.5C 345.409,85.2881 381.409,102.788 417.5,120C 450.264,141.191 465.597,171.524 463.5,211C 462.81,224.584 461.644,238.084 460,251.5C 485.636,276.077 497.303,306.077 495,341.5C 477.413,373.006 460.079,404.673 443,436.5C 439.229,440.788 434.729,441.621 429.5,439C 415.26,415.547 408.094,390.047 408,362.5C 403.333,356.5 398.667,350.5 394,344.5C 390.054,350.779 385.721,356.779 381,362.5C 375.816,372.565 374.149,383.232 376,394.5C 378.942,411.816 381.775,429.149 384.5,446.5C 384.586,450.448 382.92,453.281 379.5,455C 349.552,461.256 319.552,467.256 289.5,473C 265.5,476.333 241.5,476.333 217.5,473C 188.114,467.256 158.781,461.256 129.5,455C 125.765,453.2 124.098,450.2 124.5,446C 127.062,428.125 129.896,410.292 133,392.5C 134.719,381.429 132.719,371.096 127,361.5C 122.611,356.111 118.611,350.444 115,344.5C 110.094,349.983 105.428,355.649 101,361.5C 100.792,386.664 94.7924,410.331 83,432.5C 78.4041,436.432 73.7374,436.432 69,432.5C 50.0819,401.666 31.4152,370.666 13,339.5C 11.7276,304.632 23.7276,275.299 49,251.5C 48.102,242.871 47.102,234.205 46,225.5C 42.9191,198.642 47.5858,173.309 60,149.5C 69.2999,136.531 80.7999,126.031 94.5,118C 129.744,101.712 164.744,84.8784 199.5,67.5C 200.332,59.1866 200.832,50.8532 201,42.5C 201.979,40.0324 203.479,38.0324 205.5,36.5 Z"/></g>
<g><path style="opacity:1" fill="#fa034f" d="M 215.5,59.5 C 217.39,59.2965 218.89,59.9632 220,61.5C 225.064,68.9033 229.73,76.5699 234,84.5C 238.822,100.788 243.489,117.122 248,133.5C 248.989,138.84 246.822,141.34 241.5,141C 223.689,116.734 215.022,89.5673 215.5,59.5 Z"/></g>
<g><path style="opacity:1" fill="#fa044f" d="M 289.5,59.5 C 290.833,59.5 292.167,59.5 293.5,59.5C 294.152,74.2574 291.985,88.5908 287,102.5C 281.949,115.336 275.949,127.67 269,139.5C 264.183,142.677 261.349,141.343 260.5,135.5C 265.095,115.787 270.928,96.4539 278,77.5C 282.104,71.613 285.938,65.613 289.5,59.5 Z"/></g>
<g><path style="opacity:1" fill="#fc8464" d="M 195.5,83.5 C 200.535,82.5021 204.702,83.8354 208,87.5C 211.211,98.4657 215.211,109.132 220,119.5C 220.847,122.588 220.347,125.421 218.5,128C 214.625,129.52 210.625,129.854 206.5,129C 186.52,125.241 166.52,121.574 146.5,118C 142.13,116.022 141.464,113.189 144.5,109.5C 161.78,101.028 178.78,92.3616 195.5,83.5 Z"/></g>
<g><path style="opacity:1" fill="#fd8464" d="M 304.5,83.5 C 307.187,83.3359 309.854,83.5026 312.5,84C 329.377,92.6053 346.377,100.939 363.5,109C 367.483,112.408 367.15,115.408 362.5,118C 341.446,121.342 320.446,125.009 299.5,129C 290.667,130.833 287.167,127.333 289,118.5C 293.654,108.873 297.32,98.8729 300,88.5C 301.025,86.313 302.525,84.6464 304.5,83.5 Z"/></g>
<g><path style="opacity:1" fill="#9eaacd" d="M 113.5,123.5 C 132.872,121.86 151.206,125.36 168.5,134C 159.581,135.126 151.581,138.459 144.5,144C 134.545,152.45 126.378,162.283 120,173.5C 114.659,185.534 109.325,197.534 104,209.5C 92.2959,224.205 78.9625,237.205 64,248.5C 59.5528,226.975 58.5528,205.308 61,183.5C 63.7908,160.721 74.9574,143.554 94.5,132C 100.697,128.562 107.031,125.729 113.5,123.5 Z"/></g>
<g><path style="opacity:1" fill="#9eaacd" d="M 370.5,123.5 C 398.997,121.044 421.497,131.377 438,154.5C 443.54,164.119 446.873,174.452 448,185.5C 449.058,203.904 448.391,222.238 446,240.5C 445.849,243.119 445.015,245.453 443.5,247.5C 428.852,236.018 415.685,223.018 404,208.5C 398.923,195.617 393.257,182.95 387,170.5C 379.213,157.713 369.046,147.213 356.5,139C 351.465,136.407 346.132,134.741 340.5,134C 350.124,129.182 360.124,125.682 370.5,123.5 Z"/></g>
<g><path style="opacity:1" fill="#9eaacd" d="M 178.5,135.5 C 188.886,134.531 198.886,136.031 208.5,140C 221.636,144.816 233.803,151.316 245,159.5C 246.439,161.275 247.439,163.275 248,165.5C 248.667,183.5 248.667,201.5 248,219.5C 246.325,225.841 242.492,230.341 236.5,233C 213.523,239.77 190.69,246.937 168,254.5C 163.115,254.154 158.615,252.654 154.5,250C 147.725,243.138 140.725,236.471 133.5,230C 126.314,225.826 118.647,222.826 110.5,221C 109.106,220.044 108.439,218.711 108.5,217C 111.516,211.812 114.683,206.645 118,201.5C 127.645,169.695 147.812,147.695 178.5,135.5 Z"/></g>
<g><path style="opacity:1" fill="#9eaacd" d="M 312.5,135.5 C 321.491,134.644 330.158,135.81 338.5,139C 364.359,151.191 381.192,171.024 389,198.5C 392.418,204.337 396.084,210.004 400,215.5C 400.825,217.701 400.325,219.534 398.5,221C 388.909,222.462 380.242,226.128 372.5,232C 367.133,237.032 362.133,242.365 357.5,248C 351.119,252.239 344.119,254.239 336.5,254C 313.123,245.986 289.789,237.986 266.5,230C 264.877,227.92 263.377,225.754 262,223.5C 260.882,213.056 260.382,202.556 260.5,192C 260.667,182.833 260.833,173.667 261,164.5C 263.892,158.608 268.392,154.441 274.5,152C 286.743,145.208 299.41,139.708 312.5,135.5 Z"/></g>
<g><path style="opacity:1" fill="#9eaacd" d="M 96.5,231.5 C 101.823,231.984 105.656,234.651 108,239.5C 110.237,258.993 108.237,277.993 102,296.5C 96.4968,314.835 88.8301,332.169 79,348.5C 73.5733,355.931 67.4066,362.764 60.5,369C 54.8662,371.776 50.3662,370.609 47,365.5C 43.9745,347.943 42.6412,330.277 43,312.5C 50.0497,293.399 57.383,274.399 65,255.5C 75.8382,247.844 86.3382,239.844 96.5,231.5 Z"/></g>
<g><path style="opacity:1" fill="#9eaacd" d="M 408.5,231.5 C 409.873,231.343 411.207,231.51 412.5,232C 422.4,239.866 432.566,247.366 443,254.5C 451.263,274.292 458.93,294.292 466,314.5C 466.667,320.167 466.667,325.833 466,331.5C 464.307,342.121 462.974,352.787 462,363.5C 460.154,369.995 455.988,372.162 449.5,370C 440.227,362.06 432.393,352.894 426,342.5C 414.508,321.36 406.175,299.027 401,275.5C 400.333,263.167 400.333,250.833 401,238.5C 402.742,235.254 405.242,232.921 408.5,231.5 Z"/></g>
<g><path style="opacity:1" fill="#9eaacd" d="M 240.5,243.5 C 243.785,243.269 246.285,244.603 248,247.5C 248.964,261.594 248.631,275.594 247,289.5C 238.141,293.007 228.974,295.507 219.5,297C 210.928,299.746 202.594,303.079 194.5,307C 193.5,307.667 192.5,307.667 191.5,307C 179.753,296.348 173.92,283.182 174,267.5C 175.214,265.951 176.714,264.785 178.5,264C 199.495,257.835 220.161,251.001 240.5,243.5 Z"/></g>
<g><path style="opacity:1" fill="#9eaacd" d="M 264.5,243.5 C 287.105,250.757 309.772,257.923 332.5,265C 333.333,265.833 334.167,266.667 335,267.5C 335.6,283.47 329.767,296.637 317.5,307C 315.447,307.325 313.447,306.991 311.5,306C 297.14,299.326 282.14,294.659 266.5,292C 264.152,291.654 262.319,290.487 261,288.5C 260.333,274.5 260.333,260.5 261,246.5C 262.145,245.364 263.312,244.364 264.5,243.5 Z"/></g>
<g><path style="opacity:1" fill="#9ba7c9" d="M 46.5,276.5 C 47.5,276.5 48.5,276.5 49.5,276.5C 49.6567,277.873 49.49,279.207 49,280.5C 43.0302,290.407 39.0302,301.074 37,312.5C 36.5001,327.83 36.3334,343.163 36.5,358.5C 34.8561,358.714 33.3561,358.38 32,357.5C 22.9081,343.524 20.9081,328.524 26,312.5C 28.986,298.182 35.8193,286.182 46.5,276.5 Z"/></g>
<g><path style="opacity:1" fill="#9ca8ca" d="M 459.5,276.5 C 465.731,279.561 470.564,284.228 474,290.5C 482.863,306.479 486.196,323.479 484,341.5C 482.303,347.226 479.803,352.559 476.5,357.5C 475.311,358.429 473.978,358.762 472.5,358.5C 472.667,343.163 472.5,327.83 472,312.5C 469.441,300.384 464.941,289.051 458.5,278.5C 458.863,277.817 459.196,277.15 459.5,276.5 Z"/></g>
<g><path style="opacity:1" fill="#9ba7c9" d="M 107.5,296.5 C 108.5,296.5 109.5,296.5 110.5,296.5C 111.106,316.951 103.773,333.951 88.5,347.5C 87.4173,346.635 87.2506,345.635 88,344.5C 95.976,329.066 102.476,313.066 107.5,296.5 Z"/></g>
<g><path style="opacity:1" fill="#9ba7c9" d="M 398.5,296.5 C 399.496,296.414 400.329,296.748 401,297.5C 406.229,313.29 412.562,328.624 420,343.5C 420.781,344.944 420.614,346.277 419.5,347.5C 404.492,333.811 397.492,316.811 398.5,296.5 Z"/></g>
<g><path style="opacity:1" fill="#9eaacc" d="M 235.5,301.5 C 238.85,301.335 242.183,301.502 245.5,302C 246.333,302.833 247.167,303.667 248,304.5C 248.667,318.833 248.667,333.167 248,347.5C 247.167,348.333 246.333,349.167 245.5,350C 231.833,350.667 218.167,350.667 204.5,350C 195.766,343.038 192.933,334.205 196,323.5C 207.093,312.372 220.259,305.039 235.5,301.5 Z"/></g>
<g><path style="opacity:1" fill="#9eaacd" d="M 263.5,301.5 C 282.257,302.631 298.424,309.631 312,322.5C 315.85,332.649 313.684,341.483 305.5,349C 298.267,350.133 290.934,350.633 283.5,350.5C 276.833,350.333 270.167,350.167 263.5,350C 262.692,349.692 262.025,349.192 261.5,348.5C 260.35,333.878 260.184,319.212 261,304.5C 261.698,303.309 262.531,302.309 263.5,301.5 Z"/></g>
<g><path style="opacity:1" fill="#9da9cc" d="M 152.5,329.5 C 153.552,329.351 154.552,329.517 155.5,330C 165.479,339.143 173.646,349.643 180,361.5C 180.988,364.424 181.654,367.424 182,370.5C 182.818,380.078 182.651,389.578 181.5,399C 180.5,399.667 179.5,399.667 178.5,399C 172.333,393.5 166.167,388 160,382.5C 156.858,377.882 154.524,372.882 153,367.5C 152.5,354.838 152.333,342.171 152.5,329.5 Z"/></g>
<g><path style="opacity:1" fill="#9da9cc" d="M 352.5,329.5 C 353.822,329.33 354.989,329.663 356,330.5C 356.667,341.833 356.667,353.167 356,364.5C 354.409,373.183 350.576,380.683 344.5,387C 339.833,391 335.167,395 330.5,399C 329.207,399.49 327.873,399.657 326.5,399.5C 326.333,388.828 326.5,378.161 327,367.5C 328.747,360.007 332.08,353.34 337,347.5C 342.376,341.628 347.543,335.628 352.5,329.5 Z"/></g>
<g><path style="opacity:1" fill="#9da9cc" d="M 214.5,359.5 C 224.172,359.334 233.839,359.5 243.5,360C 245.286,360.785 246.786,361.951 248,363.5C 248.667,383.5 248.667,403.5 248,423.5C 246.833,424.667 245.667,425.833 244.5,427C 234.167,427.667 223.833,427.667 213.5,427C 210.667,425.5 208.5,423.333 207,420.5C 206.333,402.5 206.333,384.5 207,366.5C 208.742,363.254 211.242,360.921 214.5,359.5 Z"/></g>
<g><path style="opacity:1" fill="#9eaacd" d="M 264.5,359.5 C 274.172,359.334 283.839,359.5 293.5,360C 297.146,361.076 299.98,363.243 302,366.5C 302.667,384.167 302.667,401.833 302,419.5C 300.833,423.333 298.333,425.833 294.5,427C 284.5,427.667 274.5,427.667 264.5,427C 262.667,426.5 261.5,425.333 261,423.5C 260.333,403.5 260.333,383.5 261,363.5C 262.376,362.295 263.542,360.962 264.5,359.5 Z"/></g>
<g><path style="opacity:1" fill="#9da9cb" d="M 154.5,391.5 C 156.308,391.491 157.975,391.991 159.5,393C 166.754,399.917 173.587,407.083 180,414.5C 181.987,420.144 182.82,425.978 182.5,432C 182.333,435.833 182.167,439.667 182,443.5C 180.534,445.325 178.701,445.825 176.5,445C 168.961,437.13 161.794,428.963 155,420.5C 152.531,411.673 151.864,402.673 153,393.5C 153.717,392.956 154.217,392.289 154.5,391.5 Z"/></g>
<g><path style="opacity:1" fill="#9da9cc" d="M 350.5,391.5 C 352.722,391.178 354.556,391.845 356,393.5C 357.167,402.369 356.5,411.035 354,419.5C 352.729,422.433 351.062,425.099 349,427.5C 343.113,433.387 337.279,439.221 331.5,445C 329.633,445.711 328.133,445.211 327,443.5C 326.087,434.424 326.42,425.424 328,416.5C 329,414.5 330,412.5 331,410.5C 337.864,404.495 344.364,398.162 350.5,391.5 Z"/></g>
</svg>
