<?xml version="1.0" encoding="UTF-8"?>
<!DOCTYPE svg PUBLIC "-//W3C//DTD SVG 1.1//EN" "http://www.w3.org/Graphics/SVG/1.1/DTD/svg11.dtd">
<svg xmlns="http://www.w3.org/2000/svg" version="1.1" width="512px" height="512px" style="shape-rendering:geometricPrecision; text-rendering:geometricPrecision; image-rendering:optimizeQuality; fill-rule:evenodd; clip-rule:evenodd" xmlns:xlink="http://www.w3.org/1999/xlink">
<g><path style="opacity:0.985" fill="#494f6a" d="M 240.5,4.5 C 260.848,3.43064 280.848,5.5973 300.5,11C 302.004,12.4907 302.837,14.324 303,16.5C 304.807,30.8427 307.307,45.0093 310.5,59C 342.292,78.8959 374.959,97.2292 408.5,114C 439.888,135.115 454.221,164.782 451.5,203C 451.598,213.118 450.598,223.118 448.5,233C 479.05,270.004 490.883,312.504 484,360.5C 466.167,377.667 448.333,394.833 430.5,412C 427.653,412.944 425.153,412.444 423,410.5C 410.739,388.792 404.739,365.458 405,340.5C 399.333,333.167 393.667,325.833 388,318.5C 383.245,325.676 378.245,332.676 373,339.5C 367.343,349.126 365.343,359.46 367,370.5C 370.214,389.285 373.048,408.118 375.5,427C 374.828,439.826 374.328,452.659 374,465.5C 373.781,466.938 373.281,468.271 372.5,469.5C 336.113,491.363 296.779,504.029 254.5,507.5C 212.057,504.186 172.89,491.186 137,468.5C 135.802,454.371 134.969,440.204 134.5,426C 136.953,407.781 139.786,389.614 143,371.5C 144.786,359.311 142.452,347.978 136,337.5C 130.947,331.448 126.281,325.115 122,318.5C 116.716,326.119 111.049,333.452 105,340.5C 105.431,366.282 98.9307,390.115 85.5,412C 83.5,412.667 81.5,412.667 79.5,412C 60.6977,394.866 42.1977,377.366 24,359.5C 23.3333,343.167 23.3333,326.833 24,310.5C 25.717,280.739 37.3837,255.739 59,235.5C 56.0539,209.466 58.0539,183.799 65,158.5C 72.3829,138.779 85.2163,123.612 103.5,113C 111.657,107.922 120.324,103.922 129.5,101C 152.335,87.0815 175.335,73.4148 198.5,60C 199.701,59.0975 200.535,57.9308 201,56.5C 203.117,41.7979 205.45,27.1312 208,12.5C 209.491,10.9963 211.324,10.1629 213.5,10C 222.646,8.20453 231.646,6.3712 240.5,4.5 Z"/></g>
<g><path style="opacity:1" fill="#9eaacd" d="M 242.5,20.5 C 244.936,20.317 247.103,20.9837 249,22.5C 249.667,40.1667 249.667,57.8333 249,75.5C 245.943,86.5488 239.776,95.3821 230.5,102C 239.302,107.797 245.469,115.631 249,125.5C 249.5,185.499 249.667,245.499 249.5,305.5C 246.675,305.838 244.508,304.838 243,302.5C 226,277.833 209,253.167 192,228.5C 191.138,226.913 190.471,225.246 190,223.5C 189.833,206.808 189.166,190.141 188,173.5C 184.863,152.382 175.363,134.882 159.5,121C 155.294,118.398 150.961,116.064 146.5,114C 142.943,110.818 142.609,107.318 145.5,103.5C 165.167,93 184.833,82.5 204.5,72C 217.298,54.8927 229.965,37.7261 242.5,20.5 Z"/></g>
<g><path style="opacity:1" fill="#9eaacd" d="M 261.5,20.5 C 263.936,20.317 266.103,20.9837 268,22.5C 279.465,39.2645 291.299,55.7645 303.5,72C 323.746,82.7061 343.913,93.5395 364,104.5C 366.222,107.945 365.722,110.945 362.5,113.5C 341.55,123.053 328.383,139.053 323,161.5C 318.529,179.944 317.363,198.611 319.5,217.5C 319.555,221.056 318.722,224.389 317,227.5C 299.333,253.167 281.667,278.833 264,304.5C 262.333,305.833 260.667,305.833 259,304.5C 258.333,245.167 258.333,185.833 259,126.5C 260.806,121.554 263.139,116.888 266,112.5C 269.549,108.65 273.383,105.15 277.5,102C 269.326,95.8375 263.493,88.0041 260,78.5C 258.431,60.2011 258.098,41.8678 259,23.5C 260.045,22.6266 260.878,21.6266 261.5,20.5 Z"/></g>
<g><path style="opacity:1" fill="#9eaacd" d="M 116.5,112.5 C 133.972,111.986 148.806,117.986 161,130.5C 164.397,134.288 166.397,138.621 167,143.5C 157.677,147.72 148.177,151.553 138.5,155C 122.616,162.899 113.783,175.732 112,193.5C 111,195.167 110,196.833 109,198.5C 98.2422,206.587 88.0755,215.42 78.5,225C 74.8453,227.335 71.6786,226.835 69,223.5C 59.6563,192.917 63.9897,164.584 82,138.5C 91.7018,127.279 103.202,118.612 116.5,112.5 Z"/></g>
<g><path style="opacity:1" fill="#9eaacd" d="M 376.5,112.5 C 381.179,112.334 385.845,112.501 390.5,113C 420.168,125.009 437.668,146.842 443,178.5C 444.28,193.349 443.28,208.016 440,222.5C 438.139,226.007 435.305,227.173 431.5,226C 420.333,216.167 409.167,206.333 398,196.5C 395.367,190.781 393.7,184.781 393,178.5C 388.103,166.604 379.603,158.437 367.5,154C 358.626,151.268 350.126,147.768 342,143.5C 341.294,141.029 341.627,138.695 343,136.5C 351.672,124.923 362.839,116.923 376.5,112.5 Z"/></g>
<g><path style="opacity:1" fill="#9eaacd" d="M 167.5,151.5 C 170.505,151.253 173.005,152.253 175,154.5C 179.629,167.398 181.796,180.732 181.5,194.5C 181.428,202.528 180.928,210.528 180,218.5C 179.214,221.583 177.381,223.749 174.5,225C 157.584,230.974 140.584,236.307 123.5,241C 122,240.167 120.833,239 120,237.5C 119.333,221.833 119.333,206.167 120,190.5C 122.715,179.56 128.548,170.727 137.5,164C 147.364,159.328 157.364,155.162 167.5,151.5 Z"/></g>
<g><path style="opacity:1" fill="#9eaacd" d="M 336.5,151.5 C 349.598,154.475 361.931,159.309 373.5,166C 381.044,172.591 385.877,180.758 388,190.5C 388.667,206.5 388.667,222.5 388,238.5C 386.53,240.152 384.697,241.152 382.5,241.5C 366.209,235.903 349.876,230.403 333.5,225C 331.667,223.833 330.167,222.333 329,220.5C 325.023,198.933 326.023,177.6 332,156.5C 333.707,154.963 335.207,153.296 336.5,151.5 Z"/></g>
<g><path style="opacity:1" fill="#fc024f" d="M 110.5,210.5 C 113.286,210.956 114.619,212.623 114.5,215.5C 113.88,223.647 113.547,231.814 113.5,240C 114.003,255.85 114.503,271.684 115,287.5C 107.031,310.26 93.5313,329.094 74.5,344C 70.492,345.416 68.1587,344.082 67.5,340C 71.5965,329.377 75.0965,318.543 78,307.5C 76.4139,270.78 87.2472,238.446 110.5,210.5 Z"/></g>
<g><path style="opacity:1" fill="#fb034f" d="M 395.5,210.5 C 397.39,210.297 398.89,210.963 400,212.5C 421.409,240.4 431.409,272.066 430,307.5C 433.299,318.398 436.799,329.231 440.5,340C 439.841,344.082 437.508,345.416 433.5,344C 415.577,329.644 402.41,311.811 394,290.5C 393.094,286.721 392.594,282.888 392.5,279C 394.742,258.219 395.075,237.385 393.5,216.5C 393.363,214.159 394.03,212.159 395.5,210.5 Z"/></g>
<g><path style="opacity:1" fill="#fc024f" d="M 80.5,228.5 C 83.8852,227.79 86.2186,228.956 87.5,232C 78.6431,250.238 72.8097,269.405 70,289.5C 67.4581,295.365 64.1248,300.699 60,305.5C 57.1787,318.312 51.3454,329.478 42.5,339C 38.0142,341.583 34.8475,340.416 33,335.5C 29.2849,290.947 45.1182,255.28 80.5,228.5 Z"/></g>
<g><path style="opacity:1" fill="#fc024f" d="M 422.5,228.5 C 425.564,228.144 428.231,228.977 430.5,231C 464.402,257.986 479.235,293.153 475,336.5C 473.456,339.689 470.956,340.855 467.5,340C 458.447,331.733 452.614,321.567 450,309.5C 446.73,303.236 443.064,297.236 439,291.5C 435.969,271.707 430.302,252.707 422,234.5C 421.322,232.402 421.489,230.402 422.5,228.5 Z"/></g>
<g><path style="opacity:1" fill="#9eaacd" d="M 174.5,231.5 C 179.503,231.085 183.67,232.752 187,236.5C 202.944,260.11 219.277,283.443 236,306.5C 237.899,310.136 237.899,313.803 236,317.5C 214.99,341.341 193.823,365.008 172.5,388.5C 171.522,388.023 170.689,387.357 170,386.5C 168.377,376.581 165.043,367.247 160,358.5C 148.45,341.403 138.45,323.403 130,304.5C 123.872,287.352 121.539,269.685 123,251.5C 123.956,250.421 124.789,249.255 125.5,248C 142.089,242.97 158.423,237.47 174.5,231.5 Z"/></g>
<g><path style="opacity:1" fill="#9eaacd" d="M 327.5,231.5 C 329.527,231.338 331.527,231.505 333.5,232C 348.914,237.805 364.581,242.805 380.5,247C 382.667,247.833 384.167,249.333 385,251.5C 386.988,278.223 381.322,303.223 368,326.5C 358.575,341.01 349.909,356.01 342,371.5C 340.067,376.695 338.733,382.028 338,387.5C 337.439,388.022 336.772,388.355 336,388.5C 315.023,365.521 294.023,342.521 273,319.5C 271,315.167 271,310.833 273,306.5C 289.58,283.007 305.913,259.341 322,235.5C 323.812,234.023 325.645,232.69 327.5,231.5 Z"/></g>
<g><path style="opacity:1" fill="#9eaacd" d="M 242.5,321.5 C 245.044,321.104 247.211,321.771 249,323.5C 249.667,378.5 249.667,433.5 249,488.5C 247.806,489.43 246.473,490.097 245,490.5C 235.13,482.298 224.963,474.465 214.5,467C 205.026,462.397 195.026,460.064 184.5,460C 181.438,458.939 178.938,457.106 177,454.5C 174.672,436.259 173.672,417.925 174,399.5C 174.667,398.167 175.333,396.833 176,395.5C 198.744,371.261 220.911,346.594 242.5,321.5 Z"/></g>
<g><path style="opacity:1" fill="#9eaacd" d="M 260.5,321.5 C 262.199,321.34 263.866,321.506 265.5,322C 288.37,346.534 310.87,371.368 333,396.5C 334.923,399.544 335.756,402.877 335.5,406.5C 334.236,421.493 333.069,436.493 332,451.5C 331.021,454.625 329.187,457.125 326.5,459C 313.71,459.485 301.71,462.819 290.5,469C 281.406,476.292 272.24,483.459 263,490.5C 261.395,489.899 260.062,488.899 259,487.5C 258.333,432.833 258.333,378.167 259,323.5C 259.717,322.956 260.217,322.289 260.5,321.5 Z"/></g>
<g><path style="opacity:1" fill="#9ca8cb" d="M 353.5,365.5 C 357.078,381.611 360.244,397.944 363,414.5C 363.837,427.908 363.171,441.242 361,454.5C 358.981,458.935 355.481,460.602 350.5,459.5C 342.613,460.92 338.946,457.754 339.5,450C 341.955,421.437 346.622,393.27 353.5,365.5 Z"/></g>
<g><path style="opacity:1" fill="#9ca8cb" d="M 153.5,364.5 C 156.907,374.128 159.407,384.128 161,394.5C 165.262,414.661 167.928,434.994 169,455.5C 167.786,457.049 166.286,458.215 164.5,459C 152.296,463.261 146.13,459.094 146,446.5C 144.779,436.522 144.446,426.522 145,416.5C 148.473,399.273 151.307,381.94 153.5,364.5 Z"/></g>
</svg>
