<?xml version="1.0" encoding="UTF-8"?>
<!DOCTYPE svg PUBLIC "-//W3C//DTD SVG 1.1//EN" "http://www.w3.org/Graphics/SVG/1.1/DTD/svg11.dtd">
<svg xmlns="http://www.w3.org/2000/svg" version="1.1" width="512px" height="512px" style="shape-rendering:geometricPrecision; text-rendering:geometricPrecision; image-rendering:optimizeQuality; fill-rule:evenodd; clip-rule:evenodd" xmlns:xlink="http://www.w3.org/1999/xlink">
<g><path style="opacity:0.985" fill="#494f69" d="M 240.5,4.5 C 260.856,3.43198 280.856,5.59865 300.5,11C 302.004,12.4907 302.837,14.324 303,16.5C 304.949,30.8191 307.449,44.9858 310.5,59C 332.332,71.7484 353.999,84.7484 375.5,98C 394.068,104.61 410.734,114.276 425.5,127C 439.99,141.821 448.157,159.654 450,180.5C 452.298,198.27 451.798,215.936 448.5,233.5C 468.433,256.045 480.267,282.379 484,312.5C 484.667,328.5 484.667,344.5 484,360.5C 466.167,377.667 448.333,394.833 430.5,412C 426.525,413.379 423.691,412.213 422,408.5C 410.692,387.267 405.025,364.6 405,340.5C 399.333,333.167 393.667,325.833 388,318.5C 383.245,325.676 378.245,332.676 373,339.5C 367.535,349.159 365.535,359.492 367,370.5C 370.54,389.572 373.373,408.739 375.5,428C 375.121,441.897 374.288,455.731 373,469.5C 343.7,486.266 312.533,498.1 279.5,505C 254.035,509.079 229.035,507.079 204.5,499C 180.536,491.908 158.036,481.742 137,468.5C 135.886,454.022 135.053,439.522 134.5,425C 137.147,407.139 139.98,389.305 143,371.5C 144.89,359.283 142.557,347.95 136,337.5C 130.947,331.448 126.281,325.115 122,318.5C 116.716,326.119 111.049,333.452 105,340.5C 105.429,366.289 98.9292,390.122 85.5,412C 83.5,412.667 81.5,412.667 79.5,412C 60.6276,394.494 42.1276,376.661 24,358.5C 23.3333,342.833 23.3333,327.167 24,311.5C 25.4837,281.343 37.1504,256.01 59,235.5C 55.5565,206.488 58.5565,178.155 68,150.5C 81.9101,125.934 102.41,109.434 129.5,101C 152.335,87.0815 175.335,73.4148 198.5,60C 199.701,59.0975 200.535,57.9308 201,56.5C 203.24,41.8172 205.574,27.1505 208,12.5C 209.491,10.9963 211.324,10.1629 213.5,10C 222.646,8.20453 231.646,6.3712 240.5,4.5 Z"/></g>
<g><path style="opacity:1" fill="#fc024f" d="M 242.5,20.5 C 245.961,20.1459 248.461,21.4792 250,24.5C 250.667,40.1667 250.667,55.8333 250,71.5C 247.496,84.0293 241.329,94.1959 231.5,102C 236.345,106.511 240.845,111.345 245,116.5C 247.66,120.814 249.327,125.481 250,130.5C 250.667,188.5 250.667,246.5 250,304.5C 247.119,306.028 244.786,305.362 243,302.5C 225.667,277.167 208.333,251.833 191,226.5C 189.883,208.875 188.883,191.208 188,173.5C 185.005,154.344 176.838,137.844 163.5,124C 158.295,119.897 152.628,116.563 146.5,114C 142.5,110.333 142.5,106.667 146.5,103C 166.167,92.5 185.833,82 205.5,71.5C 217.598,54.2936 229.931,37.2936 242.5,20.5 Z"/></g>
<g><path style="opacity:1" fill="#fe004f" d="M 261.5,20.5 C 263.936,20.317 266.103,20.9837 268,22.5C 279.833,39 291.667,55.5 303.5,72C 323.167,82.3333 342.833,92.6667 362.5,103C 365.936,106.06 366.269,109.393 363.5,113C 345.544,120.956 333.044,134.123 326,152.5C 318.908,173.315 316.741,194.649 319.5,216.5C 319.493,219.592 318.993,222.592 318,225.5C 300.247,252.007 282.247,278.34 264,304.5C 262.333,305.833 260.667,305.833 259,304.5C 258.333,245.167 258.333,185.833 259,126.5C 260.806,121.554 263.139,116.888 266,112.5C 269.549,108.65 273.383,105.15 277.5,102C 273.667,98.1667 269.833,94.3333 266,90.5C 262.7,85.6036 260.367,80.2703 259,74.5C 258.333,57.5 258.333,40.5 259,23.5C 260.045,22.6266 260.878,21.6266 261.5,20.5 Z"/></g>
<g><path style="opacity:1" fill="#9eaacd" d="M 116.5,112.5 C 138.412,112.203 155.245,121.203 167,139.5C 167.667,140.833 167.667,142.167 167,143.5C 157.677,147.72 148.177,151.553 138.5,155C 122.638,162.883 113.804,175.716 112,193.5C 111,195.167 110,196.833 109,198.5C 98.2422,206.587 88.0755,215.42 78.5,225C 74.8453,227.335 71.6786,226.835 69,223.5C 59.7471,192.926 64.0805,164.593 82,138.5C 91.7018,127.279 103.202,118.612 116.5,112.5 Z"/></g>
<g><path style="opacity:1" fill="#9eaacd" d="M 376.5,112.5 C 387.166,111.223 396.833,113.723 405.5,120C 435.411,141.005 447.911,169.838 443,206.5C 442.327,212.906 440.827,219.073 438.5,225C 436.305,226.373 433.971,226.706 431.5,226C 420.333,216.167 409.167,206.333 398,196.5C 395.586,188.873 393.252,181.207 391,173.5C 385.448,164.3 377.615,157.8 367.5,154C 360.909,151.469 354.242,149.136 347.5,147C 342.743,145.931 340.909,143.098 342,138.5C 350.517,125.809 362.017,117.143 376.5,112.5 Z"/></g>
<g><path style="opacity:1" fill="#9eaacd" d="M 167.5,151.5 C 170.505,151.253 173.005,152.253 175,154.5C 179.613,167.388 181.779,180.721 181.5,194.5C 181.384,202.524 180.884,210.524 180,218.5C 179.214,221.583 177.381,223.749 174.5,225C 157.584,230.974 140.584,236.307 123.5,241C 122.333,239.833 121.167,238.667 120,237.5C 119.333,221.833 119.333,206.167 120,190.5C 122.715,179.56 128.548,170.727 137.5,164C 147.398,159.32 157.398,155.153 167.5,151.5 Z"/></g>
<g><path style="opacity:1" fill="#9eaacc" d="M 336.5,151.5 C 347.766,154.423 358.766,158.256 369.5,163C 378.479,169.458 384.646,177.958 388,188.5C 388.667,205.167 388.667,221.833 388,238.5C 386.53,240.152 384.697,241.152 382.5,241.5C 366.209,235.903 349.876,230.403 333.5,225C 328.408,220.735 326.241,215.235 327,208.5C 325.737,190.885 327.404,173.551 332,156.5C 333.707,154.963 335.207,153.296 336.5,151.5 Z"/></g>
<g><path style="opacity:1" fill="#9da9cc" d="M 110.5,210.5 C 113.525,211.033 114.858,212.867 114.5,216C 113.892,223.816 113.559,231.649 113.5,239.5C 114.113,255.511 114.613,271.511 115,287.5C 107.002,310.349 93.5021,329.182 74.5,344C 70.492,345.416 68.1587,344.082 67.5,340C 70.8632,330.911 74.0299,321.744 77,312.5C 79.2228,294.808 81.5562,277.141 84,259.5C 89.2141,241.063 98.0474,224.729 110.5,210.5 Z"/></g>
<g><path style="opacity:1" fill="#9da9cc" d="M 395.5,210.5 C 397.39,210.297 398.89,210.963 400,212.5C 420.85,238.385 430.516,268.051 429,301.5C 431.279,313.618 434.945,325.284 440,336.5C 441.668,342.493 439.502,344.993 433.5,344C 416.419,330.003 403.586,312.836 395,292.5C 393.651,287.754 392.817,282.92 392.5,278C 394.707,257.535 395.04,237.035 393.5,216.5C 393.363,214.159 394.03,212.159 395.5,210.5 Z"/></g>
<g><path style="opacity:1" fill="#9da9cc" d="M 80.5,228.5 C 83.8852,227.79 86.2186,228.956 87.5,232C 78.6383,250.251 72.8049,269.418 70,289.5C 66.2529,296.663 62.2529,303.663 58,310.5C 55.5689,321.532 50.4023,331.032 42.5,339C 36.9867,341.516 33.8201,339.682 33,333.5C 29.8927,289.728 45.7261,254.728 80.5,228.5 Z"/></g>
<g><path style="opacity:1" fill="#9da9cc" d="M 422.5,228.5 C 427.059,228.944 431.059,230.777 434.5,234C 465.837,260.993 479.337,295.16 475,336.5C 473.456,339.689 470.956,340.855 467.5,340C 461.112,334.277 456.279,327.443 453,319.5C 452.124,313.748 450.124,308.415 447,303.5C 443.837,299.844 441.171,295.844 439,291.5C 435.851,271.756 430.184,252.756 422,234.5C 421.322,232.402 421.489,230.402 422.5,228.5 Z"/></g>
<g><path style="opacity:1" fill="#9eaacd" d="M 174.5,231.5 C 179.503,231.085 183.67,232.752 187,236.5C 202.944,260.11 219.277,283.443 236,306.5C 237.899,310.136 237.899,313.803 236,317.5C 214.99,341.341 193.823,365.008 172.5,388.5C 171.522,388.023 170.689,387.357 170,386.5C 168.661,376.484 165.327,367.15 160,358.5C 149.467,342.939 140.134,326.606 132,309.5C 124.995,290.802 121.995,271.468 123,251.5C 123.956,250.421 124.789,249.255 125.5,248C 142.183,243.253 158.517,237.753 174.5,231.5 Z"/></g>
<g><path style="opacity:1" fill="#9eaacd" d="M 327.5,231.5 C 329.527,231.338 331.527,231.505 333.5,232C 348.91,237.803 364.576,242.803 380.5,247C 384.66,249.492 386.66,253.159 386.5,258C 386.029,282.387 379.862,305.22 368,326.5C 358.575,341.01 349.909,356.01 342,371.5C 340.011,377.297 338.177,382.963 336.5,388.5C 315.177,365.676 294.011,342.676 273,319.5C 271.496,315.961 271.163,312.295 272,308.5C 288.914,284.34 305.58,260.007 322,235.5C 323.812,234.023 325.645,232.69 327.5,231.5 Z"/></g>
<g><path style="opacity:1" fill="#9da9cc" d="M 242.5,321.5 C 245.652,320.959 248.152,321.959 250,324.5C 250.667,378.5 250.667,432.5 250,486.5C 249.126,488.776 247.459,490.11 245,490.5C 235.13,482.298 224.963,474.465 214.5,467C 205.026,462.397 195.026,460.064 184.5,460C 180.333,458.5 177.5,455.667 176,451.5C 174.335,434.195 173.669,416.862 174,399.5C 174.667,398.167 175.333,396.833 176,395.5C 198.744,371.261 220.911,346.594 242.5,321.5 Z"/></g>
<g><path style="opacity:1" fill="#9eaacd" d="M 260.5,321.5 C 262.199,321.34 263.866,321.506 265.5,322C 288.37,346.534 310.87,371.368 333,396.5C 334.838,399.037 335.671,401.871 335.5,405C 334.188,419.805 333.354,434.638 333,449.5C 332.228,455.235 329.062,458.735 323.5,460C 311.697,460.034 300.697,463.034 290.5,469C 281.406,476.292 272.24,483.459 263,490.5C 261.395,489.899 260.062,488.899 259,487.5C 258.333,432.833 258.333,378.167 259,323.5C 259.717,322.956 260.217,322.289 260.5,321.5 Z"/></g>
<g><path style="opacity:1" fill="#9da8cb" d="M 353.5,365.5 C 358.477,385.949 361.81,406.782 363.5,428C 363.676,436.932 362.842,445.765 361,454.5C 358.981,458.935 355.481,460.602 350.5,459.5C 342.928,460.914 339.262,457.914 339.5,450.5C 342.122,421.813 346.788,393.48 353.5,365.5 Z"/></g>
<g><path style="opacity:1" fill="#9ca8cb" d="M 153.5,364.5 C 162.097,394.079 167.264,424.412 169,455.5C 167.786,457.049 166.286,458.215 164.5,459C 159.833,459.667 155.167,459.667 150.5,459C 149.667,458.167 148.833,457.333 148,456.5C 144.856,443.669 143.856,430.669 145,417.5C 148.268,399.892 151.101,382.225 153.5,364.5 Z"/></g>
</svg>
